<svg xmlns="http://www.w3.org/2000/svg" viewBox="0 0 76 19.21"><defs><style>.cls-1{fill:#202020;}.cls-2{fill:#f4c832;}</style></defs><title>Asset 4man-awards</title><g id="Layer_2" data-name="Layer 2"><g id="glass"><path class="cls-1" d="M0,4C0,3,9,1,9,1l1-1L64,4l2,2,9.75,3L76,12,65,8S63,21,52,19,39,5,39,5H36S31,18,20,16c0,0-10-1-11-13L0,6Z"/><path class="cls-2" d="M11.47,1,32.94,2.56a1.13,1.13,0,0,1,1,1.52c-1.24,3.37-5.05,11.45-12.76,10.05-8-1.47-10-9.6-10.46-12.33A.71.71,0,0,1,11.47,1Z"/><path class="cls-2" d="M41.88,3.63,63,5.3a1.2,1.2,0,0,1,1,1.61c-1.21,3.53-5,12-12.53,10.54C43.5,15.92,41.56,7.37,41.12,4.5A.74.74,0,0,1,41.88,3.63Z"/></g></g></svg>