<svg xmlns="http://www.w3.org/2000/svg" viewBox="0 0 213.27 226.68"><defs><style>.cls-1{fill:#202020;}</style></defs><title>Asset 3man-awards</title><g id="Layer_2" data-name="Layer 2"><g id="Layer_1-2" data-name="Layer 1"><path class="cls-1" d="M201.49,67.74a30.75,30.75,0,0,0-5.7-4.68c-.67-.42-1.94-.56-1.78-1.47s1.33-.53,2.11-.67c1.26-.22,2.61-.67,3-2.19s-.43-2.23-1.59-3.14c-1.53-1.21-3.35-1.42-5.12-2,.27-1,1-1.23,1.6-1.66a15.39,15.39,0,0,0,1.69-1.43c1.94-2,1.81-3.12-.55-4.53s-5-1.32-7.55-1.44c-1.43-.07-1.72-.58-1-1.65,1-1.43,1.69-3.06,3-4.27a2.2,2.2,0,0,0,.51-2.6c-.45-1-1.53-.57-2.25-.45a48.24,48.24,0,0,0-9.79,2.23c-2.24.88-2.61-.09-2.25-2s1-4,.8-6.09c-.15-1.45.06-3.11-1.69-3.79s-3.08.14-4.31,1.24-2.58,2.34-3.94,3.58c-1.45-2.79-1.72-5.65-2.14-8.51-.2-1.35-.55-3.12-2.23-3.53s-3.13.3-4.33,1.83a34.94,34.94,0,0,0-4.79,8.1,2.65,2.65,0,0,1-1.62-1.8c-.32-2.41-2.2-4.08-2.77-6.37a3.69,3.69,0,0,0-2.7-2.94c-1.57-.27-2.57.93-3.27,2.2-1.15,2.08-2.25,4.19-3.32,6.31s-3.09,2.33-4.68.44a52.66,52.66,0,0,1-4.4-6.93c-.91-1.52-2.16-3-4.07-2.93s-2.57,1.49-3.08,3.16c-.62,2.05-1.71,4-2.24,6-.29,1.16-.78,2-1.79,2.21s-1.94-.7-2.49-1.5c-1.77-2.56-3.42-5.2-5.07-7.84a2.67,2.67,0,0,0-2.9-1.19c-1.51.18-1.24,1.33-1.37,2.33a76.2,76.2,0,0,0-.69,9.79c0,2.46-.68,2.68-3,1.49-1.56-.81-2.68-2.21-4.39-2.84-2.28-.83-3.14-.41-3.16,2.07,0,2.25.19,4.49.24,6.73,0,1.15-.07,2.52-1.07,3.05s-2.1-.35-2.73-1.33c-.53-.82-1.55-.87-2.14-1.68a4.06,4.06,0,0,0-5.27-1.36c-1.7.9-1.06,3.09-.61,4.62.78,2.64,1.32,5.41,3.09,7.71,1,1.29.82,2.17-1.15,2.14A49.7,49.7,0,0,1,81,49.58c-4.43-.56-5.61,1.08-3.93,5.29a7.18,7.18,0,0,0,.62,1.24c.88,1.38,2.57,2.81,2.48,4.12-.11,1.66-2.93,1-4,2.43a1.12,1.12,0,0,1-.75.31,2,2,0,0,0-2.07,1.57,3.11,3.11,0,0,0,1.54,2.77c1.84,1.29,3.61,2.69,6,4.5A25.91,25.91,0,0,1,78,72a2.11,2.11,0,0,0-2.38,1.87c-.31,1.55,1,1.42,2,1.71,1.65.51,3.29,1,5.19,1.65-2,2.23-3.65,4.26-5.49,6.16-.63.65-1.26,1.19-.92,2.11.4,1.09,1.44.62,2.2.65,2.63.11,5.28-.35,8.06.2-1.29,1.94-2.49,3.6-3.53,5.35a2.55,2.55,0,0,0,0,3.14c.81.85,1.71.09,2.52-.36a8.11,8.11,0,0,1,6.06-.84c-1,1.8-2.39,3.23-2.69,5.25a2.81,2.81,0,0,0,.54,2.61c.8.74,1.67.27,2.54-.24C94,100.14,96,99.11,98.53,100c-.68,1.2-1.35,2.2-1.85,3.28-.56,1.23-.9,2.55.3,3.63s2.42.32,3.3-.42c1.52-1.27,3.32-1.56,5.2-2.11-.1,1-.21,1.9-.26,2.8-.19,2.89.2,3.21,3.13,2.54a10.14,10.14,0,0,0,1.05-.38,2,2,0,0,1,2.27-1c-.36.93-.8,1.49-1.71,1.61-.35,1.66-.26,3-3.08,2.24a12.07,12.07,0,0,0-9.67,1.21c-7,4.35-12.48,10.38-18.8,15.47-2.87,2.31-5.85,1.66-7.09-1.81-.61-1.71-.83-3.64-3.33-3.7-.92,0-1.36-.81-1.54-1.73a64.71,64.71,0,0,0-2.63-9.36,3.42,3.42,0,0,1,.92-4c1.31-1.17.83-2.44-.83-2.91-1.23-.35-2.26-.66-2.64-2.09a1.89,1.89,0,0,0-2-1.24c-3.13.49-5.74-.69-8.32-2.16a3.56,3.56,0,0,0-1.37-.26c-3.85-.32-3.75-.32-3.74-4.06,0-1,.62-2.6-1.13-3.12-.64-.62-2.26-.88-.91-2.28.88-.92.49-1.91.3-2.9a5.77,5.77,0,0,1,.76-3.73A100.81,100.81,0,0,1,50.67,74c2.7-4.3,5.07-8.76,3.4-14.14-.37-1.2.13-2,.94-2.94C58.87,52.31,60.92,47,60.24,41S54.83,30.1,49,34.15c-2.15,1.5-5.16.38-7-1.42a15.44,15.44,0,0,0-10.4-4.45c-1.48-.1-2.52-.78-2.7-1.88-.34-2-1.9-2.14-3.08-2-2.08.31-4.69-.21-5.85,2.39-.21.48-.35,1.39-.11,1.59,2.06,1.65-.37,2.1-.76,3.07l.36.37a10.61,10.61,0,0,0,1.88-.5,18.44,18.44,0,0,1,18.44,1c-.39,1-1.12.36-1.66.35-7.7,0-15.26.76-22.2,4.46-1.82,1-1.13-.46-1.28-1.11l-2.86,4.4a1.81,1.81,0,0,0-1.57,1.39C9.75,43.61,8.84,44,7,44.13A6.73,6.73,0,0,0,.41,49.66,14.14,14.14,0,0,0,2.86,61.47c2,2.94,4.4,5.82,7.76,7,3,1.08,5.08,1.95,6.29,5.49,2,5.84,7.67,8.22,12.8,10.92,2.75,1.46,6.95,1.29,7.25,5.85a.68.68,0,0,0,.35.42c2.41,1.4,1.82,3.44,1,5.34A3.3,3.3,0,0,0,38.5,100a2.29,2.29,0,0,1-1,3.69c-3.84,1.95-5.83,6.08-9.67,8a2.36,2.36,0,0,0-.78.79,7.29,7.29,0,0,0-1,4.19c0,1.29,1.39.81,2.24,1s.91.86.92,1.54-.5.74-.95.67c-2.23-.35-1.92,1.46-2.32,2.66-1.2,3.59,2.12,6.69,1.14,10.27-.07.26.48.95.82,1,2.15.37,2.18,2.2,2.7,3.71.28.81.53,1.62,1.72,1.34,2.69-.64,5.53-.6,8.15-1.66,6.06-2.45,11.16-.5,16.26,3a37.45,37.45,0,0,0,14.15,6.18c4.66.89,8.8-.15,13.16-2.12,6.3-2.84,11.74-6.84,17.33-10.71a1.63,1.63,0,0,0,.62-2.47c-6.76,4.36-13.17,9.31-21,12,.42-3.69.24-7.31-1.75-10.58-.72-1.19-.1-1.82.75-2.51,3.16-2.56,6-5.52,9-8.2,3.82-3.37,7.64-6.87,12.75-8.37a5.48,5.48,0,0,1,5.28,1c1.12.94.3,2.45-.12,3.66a55.24,55.24,0,0,0-2.16,8.92c-1.64,9.61-3.12,19.19-.89,28.94.4,1.74,1.08,3.51.23,5.51-.48,1.12-.61,3.27.91,3.75,2.76.86,2.35,2.41,1.65,4.35a15.82,15.82,0,0,0-.4,4.45c-.32,5-.64,10-1,15-.42,5.41-.92,10.82-1.36,16.23-.08.9-.35,1.95.84,2.4a2.31,2.31,0,0,0,2.82-.51c.74-.83,1.64-1.52,2.42-2.32,1.39-1.42,2.74-2.87,4.26-4.47.87,4.53-1.57,8.18-1.72,12.18a.58.58,0,0,1-.73.61c-2.65-.32-4.47,1.4-6.56,2.55a7.67,7.67,0,0,0-4.29,7c0,3.49,3.37,2.67,5.58,3.17a5,5,0,0,0,.56.1c6.7.66,13.35,1.95,19.75-2,3.26-2,3.89-2.4,3.9-6.17,0-4.72-2.4-9-2-13.81.2-2.75,1.84-4,3.62-5.39,2.21-1.68,4.56-1.38,6.63.27a7.74,7.74,0,0,1,2.38,3c1,2.5,3.27,4.67,2.31,7.77-.63,2-1.22,4.09-1.81,6.14-1,3.58-.49,4.69,3,5.86a4,4,0,0,1,1.67.95c2.92,3.09,6.5,3.91,10.62,3.48,3.6-.37,7-1.65,10.7-1.72,1.82,0,3.76-1,4.19-2.7.52-2.07.62-4.36-1.28-6.26-3-3-6.76-4-10.63-5-.72-.17-1.47,0-1.52-1.1-.1-2.65-.77-5.28-.38-8.05,1.29.16,1.64,1.14,2.28,1.75,1.06,1,2.09,2.7,3.55,2.31,1.87-.5,1.33-2.79,1.95-4.26.07-.15,0-.37,0-.55.18-10.18-2.07-20.18-2.15-30.35,0-3.26-1.29-6.44.65-9.71a3.59,3.59,0,0,0-1.63-5,1.27,1.27,0,0,1-.77-1.75c1-3,.79-6.05.54-9.14-.15-1.85,0-3.72,0-5.58H164c6.38.06,9.85-3.08,10.48-9.45.35-3.57-.9-10.5-3-16.2a12.08,12.08,0,0,0,.06,6.63c1.15,4.24,2.41,8.31.3,12.93-1.75,3.85-5,5.21-8.63,4.17s-5.6-3.77-8-6.19c-4.24-4.36-7.44-9.79-13-12.8a14.88,14.88,0,0,1-5.83-4.86c-1.15-1.84-3.19-3.78-1.79-6.19a6.64,6.64,0,0,1,6.13-3.58c6.95,0,11.44,4.27,16,8.5,2.73,2.54,5.31,5.25,7.85,8,1.07,1.17,2.37,2.56,4.4,2.58-1.37-1.58-3.06-2.84-4.42-4.38s-3.51-2.52-3.75-5.1c6.46,1.48,6.46,1.48,7.11-2.82,1.16.38,2.28.83,3.45,1.11s2.36.09,3.57.52c1.6.57,3.42,1.57,5,.14s-.25-2.87-.48-4.3a1.59,1.59,0,0,0-.09-.55c-1.1-1.93,0-2.24,1.62-2.28,2,0,3.94,0,5.89-.2s3.21-1.63,2.59-3.44c-1-3-.82-4.28,2.82-4.65s5-3.37,2.93-5.51c-.82-.86-2.11-1.5-1.44-3,.59-1.31,1.88-1.27,3.11-1.43,1.64-.22,3.38-.52,4.08-2.39.81-2.19-1.69-1.84-2.42-2.88,1.5-.84,3.91-1.38,3-3.38a12.85,12.85,0,0,0-4.82-5.84l-.28-.47.66,0c.73.13,1.46.29,2.19.38,1.41.17,2.66-.1,3.28-1.55C203.17,69.24,202.31,68.6,201.49,67.74Zm-107.42,13c-5.81-1-8.1-3.85-6.27-8a5.94,5.94,0,0,1,7.31-2.94,1.94,1.94,0,0,1,1.15,2,28.85,28.85,0,0,0,.48,6.15C96.8,80,96.06,81.07,94.07,80.73ZM28.21,28c-.2.75-1.07.59-1.68.69-1.18.18-2.28.83-3.54.56-.54-.09-1.4.41-1.53-.59a2.6,2.6,0,0,1,.19-1.6c.62-1,4.5-1.59,5.38-.77C27.52,26.76,28.44,27.16,28.21,28Zm18.65,73.68c-1.72.49-3.28,1-4.88,1.38-.76.18-1.45,0-1.41-1.11s.61-.9,1.28-.8C43.48,101.41,45.24,99.72,46.86,101.69Zm-2.19-9.24a11.3,11.3,0,0,1,0,4.81c-.51,2.34-1.66,2.51-3.53,2.14-2.14-.41-2-1.61-1.35-3.22s-.2-4,2.71-4.27C43.43,91.81,43.87,92.73,44.67,92.45ZM55.62,35.13a5.3,5.3,0,0,1,2.92,4.4c.47,5.31-.2,10.39-3,15.06a2.75,2.75,0,0,1-1.93,1.48,2.39,2.39,0,0,1,.19-2.4c3.52-3.87,3.63-8.47,2.37-13.07-.89-3.21-3.71-4.28-7.22-4A5.54,5.54,0,0,1,55.62,35.13ZM50,38.26a3.19,3.19,0,0,1,3.7,1.24,9.76,9.76,0,0,1,1,10.29C54.14,51,53.22,51.9,53,53.31c-1.61-4.19-4.08-8-3.89-12.49C49.1,39.91,48.47,38.68,50,38.26Zm-38.09,2.3c2.49.52,3.6-1.93,5.49-2.75a43.49,43.49,0,0,1,11.13-3.18,40.85,40.85,0,0,1,15,.45,8.6,8.6,0,0,1,2.71,1.28,85.56,85.56,0,0,0-35.37,8.35C9.76,43,12.94,42.26,11.89,40.56ZM7.66,46.73c1.68-.79,1.74.68,2.3,1.52,3.15,4.8,4,10.2,4.3,16.08C8.86,61.93,4.8,55.13,5,49.81,5.12,47.85,6.3,47.38,7.66,46.73Zm5.88,20.82C5.2,64.84-1.55,53.31,4.15,46.74a14.45,14.45,0,0,0,0,8.55c1.1,3.3,3.29,5.7,5.5,8a21.09,21.09,0,0,0,4.23,3.86l.65.73C14.06,68.22,13.75,68,13.54,67.55Zm23.1,19.18C31.77,84,26.49,82.1,22.08,78.45s-5.45-8.22-6.25-13.26c-.95-5.9-1.1-12-4.46-17.3-.72-1.13.57-1.67,1.13-1.9a95.19,95.19,0,0,1,27.61-7.15c.84,0,1.68,0,2.53,0,4.17.15,4.18.24,4.57,4.34a24.89,24.89,0,0,0,2.55,8.48,45.45,45.45,0,0,1,3.17,9.74c.67,2.78-.27,5.29-1.41,7.94-2.3,5.32-6.37,9.65-8.18,15.21C42.9,85.88,38.12,87.56,36.64,86.73Zm.84,2.47c.58-2,3-1.18,4.58-1.82,1.08-.44,1.31.64,1.34,1.88a3.16,3.16,0,0,1-3.15,2.09C38.91,91.33,37.21,90.15,37.48,89.2Zm2,15c.76-.71,1.31-.22,2-.19,2.38.11,4.59-.18,6.39-2.09,1.56-1.65,3.51-.42,4.67.4,1.69,1.19,3.14,1.74,5.14,1.21,1.11-.29,2.22.1,3.21,1.66L31.82,112C33.37,108.16,36.9,106.67,39.49,104.22Zm-12.59,18c.13-1.14.74-2,2-1.82,1.52.19,1.22,1.73,1.39,2.64.21,1.13-1,.57-1.56.76C27.61,123.75,26.75,123.52,26.9,122.23Zm-.29,3.48c0-1.48,1.37-.66,2.12-.82,1.65-.32,2.41.22,2.31,2-.06,1-.29,1.58-1.39,1.39C28.13,128,26.64,127.47,26.61,125.71Zm3.94,7.55c-1.17-.15-2.26-.53-1.91-1.81-.06-1.37.18-2,1.49-2.06,1.94-.12,1.64,1.44,1.91,2.41S31.55,133.39,30.55,133.26Zm3.92,4.35c-2.27.77-2.3-.86-2.94-1.85-.89-1.38.11-1.75,1.28-1.95,1-.17,1.1-.93.93-1.72-1-4.43-2.05-8.85-3-13.28-.23-1.08-1.29-1.27-1.75-2s-2.15.25-1.84-1a3.17,3.17,0,0,1,2.66-2.09c4.07-.56,8-1.81,12-2.65,5.73-1.2,11.39-2.61,17-4.11a23.47,23.47,0,0,1,3-.56c.75-.1,1.75-.12,1.86.76s-.68,1.39-1.65,1.5c-4.69.54-9,2.35-13.62,3.39-5.14,1.16-10.21,2.63-15.3,4a12.15,12.15,0,0,0-1.5.62c3.29.09,6.43-.83,9.53-1.61,6.28-1.57,12.56-3.17,18.89-4.57,1.3-.29,2.05-.22,2.53,1.2,1.29,3.79,1.37,7.89,3.08,11.58.58,1.25-.93,1.34-1.54,1.43-7.17,1-13.9,3.88-21.08,4.86-1.87.26-3.65,1.17-6.24,2a17.9,17.9,0,0,0,5.55-.39c8.26-2.07,16.57-3.93,24.81-6,2.11-.54,2.06.8,2.54,2s.36,2-1.2,2.3c-6.79,1.44-13.57,2.93-20.32,4.53C43.57,135,38.94,136.08,34.47,137.61Zm39.83,6.15c-.21,1.4-.94,1-1.77.93-4-.33-7.5-2.21-10.94-3.87-3.64-1.76-7.14-3.88-11.61-5.77,4.55-1.07,8.28-2.16,12.1-2.76a34,34,0,0,0,6.75-1.68c3.76-1.43,5.49.76,6,4.23A31.54,31.54,0,0,1,74.3,143.76Zm2.72.61c0-3.5.68-7-.65-10.42-.22-.55-.44-1.06.34-1.36s.77.12.94.6A13,13,0,0,1,77,144.37Zm85.22-5.77a3.83,3.83,0,0,1,.29.28l-.3.09Zm-40.47,85.8c-1.93.25-3.84.69-5.76,1-1.25,0-2-.4-2-1.77,0-1.73-.34-3.57,1-5,1.13-1.17,2.3-2.74,4.25-2a6.78,6.78,0,0,1,4.49,4.55C124.23,223,123.8,224.13,121.77,224.4Zm6.89-4.28a2.17,2.17,0,0,1-1.85,2.13c-1.4.24-1.06-1.11-1.3-1.67-2.2-5.24-7.2-6.84-10.3-4.42-2,1.57-3.35,3.39-3.29,6.08,0,.69.79,2-.89,2.06a2,2,0,0,1-2.27-2c-.14-1.18.21-2.43-.72-4.06-.85,1.53-.45,2.74-.61,3.86-.13.94.59,2.57-1.44,2.16-1.57-.32-3.61-.37-2.95-2.94a7.14,7.14,0,0,1,3.28-4.63c2.4-1.36,4.58-3.34,7.72-3,1.41.16.85-1.07.9-1.82.23-3.31.47-6.62.72-10.2,2.81,1.68,3.52,4.62,5.71,6.36,1.14.9,1.93,2.4,3.55,2.06,1.79-.38.67-2.31,1.66-3.73.59,2.81,1.31,5.31,1.6,7.85C128.4,216.2,129,218.12,128.66,220.12Zm31.64-8c2.61,1.07,5.47,1.26,7.87,3.18s2.1,3.93,1.93,6.24c-.07,1-.91,1.09-1.65,1.1-1.16,0-.71-.9-.69-1.42.09-2-.26-3.86-1.95-5.26a1.52,1.52,0,0,0-1.76-.39c2.73,4.13,2.42,6.75-1.09,7.59.31-4.75-2.4-9.48-5.59-10s-7,1.47-8,4.5c1,.38,1.44-.48,2-1,1.59-1.54,5.7-2.44,6.95-1.51s2.73,6,2.13,7.72c-.19.53-.47.51-.94.67-4.08,1.33-7.84,1.15-11.18-1.88a11.6,11.6,0,0,0-2-1.4c-3.51-2-3.5-1.95-2.17-5.79a15.89,15.89,0,0,0,.5-2.17c.36-1.87.47-3.42,2.66-4.76,2.7-1.65,4.29-4.87,6-7.7.44-.73.63-2.15,2.2-1.27a2,2,0,0,1,1.22,2.53,39.79,39.79,0,0,0-.22,8.1C156.55,211.47,158.77,211.5,160.3,212.13ZM164,199.92c0,.73.31,1.48-.29,2.34-2.06-.95-3.2-3.06-5.06-4.26a28.41,28.41,0,0,0-3.38-1.86,2.17,2.17,0,0,0-3.21,1.18c-1.49,3.29-4.05,5.84-6,9.28-1.72-2.23-2-4.68-3.31-6.77-3.3-5.48-10.44-6.56-14.39-.33-1.54,2.44-2.39,5.13-3.81,7.57-3.08-1.77-4.21-5.33-7.15-7.3-3.41-2.29-4.57-2.26-7,1.3-1,1.43-2.22,2.7-3.89,4.68.45-7.85.84-14.8,1.25-21.75.3-4.95.73-9.9.9-14.86.06-1.78.87-1.95,2-1.33,8,4.35,16.7,3,25.22,3.11,7.45.09,14.42-2.06,21.33-4.51a12.9,12.9,0,0,0,1.75-.86c.94-.51,1.72-2,2.83-1.29.79.49.26,1.9.3,2.89C162.36,178.1,163.87,189,164,199.92Zm-1.55-42.12a3.66,3.66,0,0,1-1.3,4.17c-5,3.82-11,5.41-17,6.59-4.56.9-9.3.88-12.83,1.18-7.05,0-12.79-1.25-18.54-2.44a10.19,10.19,0,0,1-5.51-3.09c-.86-.94-1.88-2.08-1.09-3.07a2.74,2.74,0,0,1,3.64-1c8,3.39,16.55,4.11,25.17,3.85,6.44-.2,12.89-.61,18.93-3.08,2.18-.89,4.7-1.21,6.41-3.21C160.68,157.32,162.06,156.66,162.42,157.8Zm-24.07-39.24c2-.08,4.21,1.42,5.93,3a100.42,100.42,0,0,1,9,9.66,45.73,45.73,0,0,0,6.18,5.79c1.66,1.32.84,3.49,1.31,5.23.87,3.26.33,3.75-3.06,4.08-5.25.5-9.73-1.55-14-4.19-8.14-5-14-12.14-19.38-19.86-.9-1.31-.74-3.53-3-3.68,1.06,3.81,3.37,7,5.66,10a56.38,56.38,0,0,0,10.2,10.63c6.61,5.19,13.44,9.66,22.36,8.66,2-.23,2.06.58,2,2.08a10.52,10.52,0,0,1-7.75,9.66,73.54,73.54,0,0,1-20.95,2.89c-7.47-.19-14.7-1.75-22-3.35-5.28-1.15-4.86-4.54-5.38-7.77-1.29-7.86-.06-15.63,1.3-23.4a135.92,135.92,0,0,1,3.15-13.26,4.44,4.44,0,0,1,.88-2c.86-.78.64-2.86,2.19-2.46,1.27.33,1.6,1.9,1.5,3.55,2.21-1.71,3.36-1.3,3.66,1.33.2,1.88,1.61,2.81,3.27,3.4.84-.36,1-1.31,1.77-1.88,1.47-1.11,2.13-1.21,3.28.39s2.82,3.55,5.12,1c.15-.17,1-.87,1.42-.28C134.54,119.89,136.36,118.65,138.35,118.56Zm5.73-19.45a23.08,23.08,0,0,1-12,0,4.5,4.5,0,0,0-1.09.09c2,2.18,4.65,1.09,6.84,1.94-3.15,2.51-3.35,2.52-5.82,1.2-3.08-1.65-5.83-3.49-5.36-7.8,5.47,3.69,11.3,3.52,17.24,2.57.54-.09,1.36-.77,1.51.36C145.47,98.29,145.21,98.78,144.08,99.11ZM175.47,73.2a3.84,3.84,0,0,1,.09,1.59,18.83,18.83,0,0,1-.67,2.66c.86.55.5,1.34-.53,3.59a29.86,29.86,0,0,1-13.57,13.89c-3.36,1.81-10.24-1.14-11.27-4.74-.56-2-1.53-3.11-3.87-3.3-6.31-.51-12.6-1.36-18.9-2a3.45,3.45,0,0,0-3.7,1.77c-1,1.58-2.63,2.76-4,4.11a1.88,1.88,0,0,1-2.14.65c-3.26-.23-6.25-1.8-9.17-3.33-1.51-.8-3.32-.93-4.59-2.24-2.13-2.17-2.68-5-3.39-7.75a1.37,1.37,0,0,1,1-1.81,2.48,2.48,0,0,1-.09-.73c0-.24,0-.46.06-.69l-.71.34-.38-.72,1.28-.65a7.36,7.36,0,0,1,.65-1.65l-.1,0c-.71-5.9,2.33-10.14,5.62-14,3.5-4.15,7.88-7.38,13.38-8.46,1.77-.34,3.83-.79,4.61,2.12.47,1.72,2.18.35,3.32.23,1.41-.16,2.1-2.85,3.63-1.54.82.69.54,2.63.84,4a9.37,9.37,0,0,0,.74,2.1c.32.66.74,1.45,1.6,1.31a1.93,1.93,0,0,0,1.61-1.32c.72-1.81,2.26-3.09,3.47-4.57.78-1,1.28-.88,1.71.28a21.49,21.49,0,0,1,1.41,3.62,2,2,0,0,0,1.86,1.76c.9.16,1.53-.47,1.89-1.3,0-.08.09-.16.14-.24,2.27-4,2.27-4,4.68-.14,1.65,2.63,1.89,2.61,3.5-.13a19.8,19.8,0,0,1,1.69-2.06c.38,2.54,3,3.6,2.87,6.11,0,.34,1.68.81,2-.61.28-1.24,1.17-2,1.95-3.32.35,2.34,2,3.54,2.89,5.25a1.13,1.13,0,0,0,1.41.63c.75-.22.45-.91.51-1.42.09-.89-.27-2,.85-2.45,1.3-.52,1.92.63,2.43,1.41A21.83,21.83,0,0,1,176,72.28C176,72.91,175.8,73.16,175.47,73.2ZM183,90.29c-3.28-.11-3.35-.13-2.3-3.23.87-2.62.77-5.31.88-8,0-1.16.21-2,1.69-1.92a7,7,0,0,1,6.8,6.83A6.89,6.89,0,0,1,183,90.29Z"/><path class="cls-1" d="M159.41,60.86c-3.28-1.33-6.76-1-10.2-.72-.43,0-.84.33-.64.68.71,1.29,0,3.35,1.93,4.06a15.76,15.76,0,0,1,3.66.57c2.18.15,4,1.24,5.91,2.17,1.22.6,1.73.58,2.09-1C163,62.9,162.94,62.29,159.41,60.86Z"/><path class="cls-1" d="M213.27,9.32c-.26,4.59-3.7,9-9.38,8.85-4.45-.13-8.7-3.89-8.7-7.76C195.2,5.28,200,.05,204.73,0,209.21,0,213.32,4.43,213.27,9.32Zm-3.64-.05c.07-3.47-3.09-6.29-7.36-6.58C200.4,2.56,198,5.55,198,8.08c0,3.72,2.66,7,5.85,7A6,6,0,0,0,209.63,9.27Z"/><path class="cls-1" d="M201.67,26.85c0,2.66-2.71,5.69-5.16,5.75s-6.46-2.41-6.24-4.16c.51-4,2.08-6.73,5.92-6.56C199.31,22,201.66,24,201.67,26.85ZM195.79,29c1.4.1,2.22-.56,2.19-1.9,0-2-2.08-2.5-3.28-2.83-1.51-.42-1.43,1.55-1.64,2.63C192.61,29.34,194.82,28.42,195.79,29Z"/><path class="cls-1" d="M64.83,24.12c0,1.31-4.8,5.41-5.87,5.11-.73-.21-.89-.75-.61-1.53.74-2.07,2.53-3.25,4-4.56A1.46,1.46,0,0,1,64.83,24.12Z"/><path class="cls-1" d="M51.57,24.81c1-1.85,2.06-3.88,3.24-5.83A1.37,1.37,0,0,1,57,20.53c-1.07,1.82-2.18,3.61-3.32,5.39a1.31,1.31,0,0,1-1.47.58C51.47,26.3,51.91,25.58,51.57,24.81Z"/><path class="cls-1" d="M67.94,31c-.48.5-.06,1.75-1.17,1.6s-2.2,1.29-3.41.55c-.48-.29-.1-.84.18-1.2.94-1.2,2-2.24,3.71-1.84C67.64,30.21,68.18,30.36,67.94,31Z"/><path class="cls-1" d="M39.47,61.92c1.06.78,2.41,1.21,2.61,2.89.11.94.14,1.79-.76,2.11-1.94.68-2.57,2.3-3.3,4-.53,1.18-1.61.74-2.34.28a7.37,7.37,0,0,1-1.46-1.87,9,9,0,0,0-2.41,2.58c-.36.45-.77.9-1.39.79-1-.19-.47-1.07-.68-1.62a.94.94,0,0,1,0-.55c.78-3.08,0-4.69-3.56-4.14-1.48.22-1.67-.89-1.11-2s1.56-1.5,2.46-2.13c-1-1-2.69-1.62-2-3.36.55-1.45,2.05-1.5,3.37-1.36s1.76-.47,1.64-1.76c-.06-.68-.44-1.69.32-2,1-.47,1.35.69,1.86,1.29s.8,1,1.17,1.51c.82,0,.82-.69,1.19-1a2.28,2.28,0,0,1,2-.75c.94.26.74,1.18.72,1.91,0,.9-.08,1.64,1.28,1.43.94-.14,2.32-.48,2.58.91a2.49,2.49,0,0,1-2.18,3c-.2-1.13.48-2.91-1.92-2.32-.92.23-.92-.56-.91-1.27s.38-1.62-.17-2.48c-1.38.37-1.58,2.35-2.67,2.45-1.41.13-.82-2.42-2.63-2.64.39,3.57-3.46,1.68-4.46,3.58.78,1.13,2.7,1.66,2.92,2.69.43,2-2.2,1.28-3,2.4-.08.11,0,.31-.06.66a18.49,18.49,0,0,0,1.84.23c3.47.11,3.47.1,2.7,3.4-.16.72-.46,1.46.15,2.13-.08-.15-.15-.31-.24-.45s-.1,0-.15,0l.38.42c2.12-3.89,3.35-4.23,5.85-1.31-.09-2.75,2.74-2.88,3.71-4.51-.49-.94-1.36-.7-2-1s-1.07-.59-.9-1.24C38,62,38.42,61.23,39.47,61.92Z"/><path class="cls-1" d="M139,85c-2.8-.06-4.78-1.75-6.73-3.46-.56-.5-.93-1.31-.26-2s1.17,0,1.72.33c.85.53,1.73,1,2.59,1.5,1.81,1,3.57,1.56,5.25-.29.92-1,2.11-1.09,2.86,0s-.21,1.67-1.08,2.37A6.37,6.37,0,0,1,139,85Z"/><path class="cls-1" d="M131.12,59.29c.06,1.71-1.56,3.24-3,2.51-3.26-1.66-6.49-.94-9.8-.5-.64.09-1.81,1.64-2.12-.23-.26-1.53-1.93-3.07.14-4.72,3.42-2.73,7.15-1.61,10.9-1.48C130.45,55,130.44,57.31,131.12,59.29Z"/><path class="cls-1" d="M149.55,137.06c-.15,1-.77,1.17-1.43,1s-1.79.21-1.84-1.09c-.05-1.1.77-.77,1.34-.82A1.69,1.69,0,0,1,149.55,137.06Z"/><path class="cls-1" d="M184.59,81.73c1.93-.34,2.13.68,2.19,1.92.07,1.45-.44,2.3-2.38,2.41C185.25,84.54,186.47,83.17,184.59,81.73Z"/><path class="cls-1" d="M92.81,72.73c-.41,1.2-1,2.4,0,3.55.33.37.7.62.16,1s-.88,0-1.26-.18C90,76.18,90.47,74.37,92.81,72.73Z"/><path class="cls-1" d="M123.18,63a6,6,0,1,0,5.17,6.3A5.77,5.77,0,0,0,123.18,63Zm-.57,10.46a4.48,4.48,0,1,1,4.32-4.24A4.29,4.29,0,0,1,122.61,73.49Z"/><path class="cls-1" d="M121,65.39a2.65,2.65,0,1,0,2.27,2.77A2.54,2.54,0,0,0,121,65.39Z"/><path class="cls-1" d="M154.18,67a6,6,0,1,0,5.17,6.3A5.77,5.77,0,0,0,154.18,67Zm-.57,10.46a4.48,4.48,0,1,1,4.32-4.24A4.29,4.29,0,0,1,153.61,77.49Z"/><path class="cls-1" d="M152,69.39a2.65,2.65,0,1,0,2.27,2.77A2.54,2.54,0,0,0,152,69.39Z"/></g></g></svg>