<svg width="244" height="180" viewBox="0 0 244 180" fill="none" xmlns="http://www.w3.org/2000/svg">
<g clip-path="url(#clip0_296_507)">
<path d="M95.9961 100.73C94.9961 100.45 87.9961 100.45 87.9961 100.45L85.9961 120.45L104.996 133.45C104.996 133.45 106.996 124.45 104.996 117.95C103.926 114.47 103.996 107.45 103.996 107.45L104.076 100.45L96.0761 100.73" fill="#F8D200"/>
<path d="M84.9171 151.45C84.9171 151.45 85.9171 154.45 84.9171 156.45C83.9171 158.45 81.9171 170.45 82.9171 170.45C83.9171 170.45 93.9171 176.45 93.9171 176.45C93.9171 176.45 107.917 159.45 106.917 158.45C105.917 157.45 104.917 151.45 104.917 151.45L98.9171 148.45L94.9171 147.45L88.9171 149.45L84.9171 151.45Z" fill="#F8D200"/>
<path d="M95.9972 27.7599C95.5372 27.6299 94.7972 28.5299 94.6172 27.3799V27.4399L96.0572 27.7699L95.9972 27.7599Z" fill="black"/>
<path d="M95.9998 27.7703L95.8798 28.2803C95.8798 28.2803 95.7798 28.2103 95.7898 28.1903C95.7998 28.1703 95.9198 27.9003 95.9898 27.7603L95.9998 27.7703Z" fill="black"/>
<path d="M99.9281 84.6901C105.169 84.7451 110.266 82.9777 114.348 79.6901C115.888 78.5001 118.348 77.2701 116.178 74.4801C115.558 73.6601 116.538 73.3901 117.178 73.4801C117.702 73.5012 118.206 73.6863 118.618 74.0093C119.031 74.3323 119.332 74.7768 119.478 75.2801C119.624 75.769 119.584 76.2945 119.367 76.7559C119.149 77.2173 118.768 77.5821 118.298 77.7801C115.998 79.2801 114.358 81.5201 112.628 83.6301C111.721 84.8345 110.749 85.9895 109.718 87.0901C103.988 92.7801 97.3581 93.4801 90.3881 89.4101C84.9281 86.2101 81.1881 81.4101 77.5781 76.4101C77.2504 75.8416 76.8429 75.323 76.3681 74.8701C74.5181 73.4701 74.5681 72.0101 76.6081 70.8101C77.1781 70.4701 77.8281 70.0601 78.4181 70.6401C79.0081 71.2201 78.4781 71.6901 78.0881 72.0801C77.1581 73.0001 77.9481 73.5601 78.4781 74.1901C84.1081 80.9301 91.1581 84.5701 99.9281 84.6901ZM87.2081 84.4401C94.4481 90.4401 104.548 90.4401 109.408 84.6201C102.048 87.6901 94.9981 86.4701 87.2081 84.4401Z" fill="black"/>
<path d="M102 68.8702C100.27 69.0802 99.8602 68.3602 99.9102 67.4202C99.9902 65.9902 100.64 64.8202 102.19 64.6602C102.43 64.6129 102.678 64.6239 102.913 64.6921C103.148 64.7603 103.363 64.8838 103.54 65.0522C103.717 65.2207 103.851 65.4292 103.932 65.6602C104.012 65.8913 104.035 66.1382 104 66.3802C103.981 66.9558 103.776 67.5097 103.415 67.9588C103.055 68.4078 102.558 68.7276 102 68.8702Z" fill="black"/>
<path d="M143.477 53.2402C146.537 53.4302 147.727 55.5902 148.197 57.9202C148.678 60.9175 148.286 63.99 147.067 66.7702C146.749 67.5706 146.132 68.2161 145.347 68.5702C144.981 68.797 144.542 68.8757 144.12 68.7902C143.699 68.7048 143.325 68.4616 143.077 68.1102C142.961 67.9614 142.877 67.7911 142.829 67.6092C142.78 67.4273 142.769 67.2376 142.795 67.0512C142.821 66.8648 142.884 66.6855 142.981 66.5239C143.077 66.3623 143.205 66.2216 143.357 66.1102C144.096 65.3837 144.699 64.5301 145.137 63.5902C146.877 59.7902 146.997 56.3002 143.477 53.2402Z" fill="black"/>
<path d="M94.5873 27.3799C94.5649 27.3973 94.5448 27.4175 94.5273 27.4399L94.5873 27.3799Z" fill="black"/>
<path d="M240.588 61.25C240.008 60.6 240.188 60.14 240.298 59.5C240.938 55.5 240.078 52.15 236.228 50.12C235.388 49.68 235.338 49.12 235.438 48.26C236.648 37.26 228.988 30.97 218.438 34.13C216.358 34.75 214.258 35.31 212.138 35.76C208.718 36.5 207.308 35.49 206.788 32.01C205.988 26.7 206.018 21.34 204.788 16.01C203.148 8.90004 195.788 5.68004 189.288 8.39004C185.448 9.98004 182.728 14.93 183.868 18.52C184.598 20.84 185.578 23.08 186.528 25.32C188.978 31.04 190.818 36.82 189.328 43.17C187.618 50.35 186.078 57.56 186.998 65C187.088 65.71 186.998 66.3 186.148 66.51C185.038 66.79 184.538 67.77 183.898 68.57C181.423 71.6718 178.482 74.3706 175.178 76.57C167.408 81.8 159.038 82.35 150.278 79.7C148.278 79.08 147.448 78.33 149.528 76.41C156.158 70.31 157.528 62.3 156.248 53.97C155.338 48.18 151.488 44.04 143.958 43.86C142.858 43.86 141.828 44.15 141.708 42.3C140.938 29.88 134.268 21.3 123.878 15.08C120.695 13.3369 117.382 11.8424 113.968 10.61C114.258 9.53004 115.088 9.37004 115.638 8.90004C116.498 8.16004 118.278 8.20004 117.998 6.51004C117.748 4.98004 116.258 4.61004 115.058 4.15004C110.808 2.55004 107.118 3.63004 103.968 6.81004C101.468 2.40004 93.9685 -0.939957 89.1885 0.140043C88.2485 0.360043 87.2685 0.640043 87.1885 1.83004C87.1885 2.83004 88.0285 2.83004 88.7685 3.07004C91.2285 3.88004 91.4685 6.20004 91.5585 8.16004C91.6385 9.95004 89.6185 9.49004 88.4785 9.79004C75.9185 13.22 66.2285 20.1 61.4785 32.61C60.4785 35.27 59.8385 37.22 56.5585 35.34C55.7292 35.0816 54.8469 35.0437 53.9985 35.23C48.4385 35.49 43.6185 39.79 41.7785 46.23C39.6585 53.7 40.7785 60.8 44.4585 67.58C44.9285 68.45 45.8685 69.15 45.7085 70.42C37.0085 72.02 29.7085 76.22 23.1785 82.83C22.1785 77.02 21.7585 71.74 22.8185 66.5C26.1285 50.18 35.4885 38.09 49.2885 29.2C52.0185 27.45 54.5985 25.55 56.1585 22.61C58.2885 18.56 58.6885 14.44 55.8885 10.61C53.0885 6.78004 49.1485 5.78004 44.6085 6.21004C41.2185 6.53004 38.8685 8.90004 35.9685 10.14C30.3069 12.565 25.1303 15.9934 20.6885 20.26C7.07847 33.18 0.63847 49.39 -0.00152984 67.85C-0.572008 81.997 4.25762 95.8317 13.5085 106.55C13.9951 107.109 14.2864 107.811 14.3385 108.55C14.9904 114.019 16.9302 119.256 19.9985 123.83C26.9985 134.73 37.1985 141.41 48.9985 145.99C49.3898 146.167 49.8129 146.264 50.2424 146.274C50.6719 146.285 51.0991 146.208 51.4985 146.05C52.7585 145.46 53.2185 146.05 53.9485 147.05C54.8896 148.42 56.0989 149.584 57.5033 150.473C58.9076 151.362 60.4777 151.956 62.1185 152.22C63.0968 152.277 64.0444 152.583 64.8719 153.108C65.6995 153.632 66.3797 154.359 66.8485 155.22C71.0385 161.37 77.6585 161.49 82.2585 155.72C82.411 155.498 82.6386 155.338 82.8994 155.27C83.1603 155.202 83.4369 155.231 83.6785 155.35C83.3856 160.227 82.5539 165.056 81.1985 169.75C80.8385 171.01 80.7185 172.15 82.0685 172.58C86.1097 173.956 89.8285 176.141 92.9985 179C93.285 179.321 93.6674 179.541 94.0889 179.628C94.5105 179.714 94.9487 179.662 95.3385 179.48C95.5286 179.38 95.6963 179.242 95.8314 179.075C95.9665 178.908 96.0661 178.715 96.1242 178.508C96.1822 178.302 96.1974 178.085 96.1689 177.872C96.1404 177.659 96.0688 177.454 95.9585 177.27C95.4785 176.12 96.1485 175.41 96.9585 174.96C98.2386 174.145 99.2479 172.969 99.8585 171.58C100.968 169.58 101.858 167.4 103.598 165.93C107.318 162.73 108.488 159.06 106.598 154.43C106.47 154.178 106.395 153.902 106.376 153.62C106.357 153.337 106.396 153.054 106.489 152.787C106.582 152.52 106.729 152.274 106.919 152.065C107.11 151.856 107.341 151.688 107.598 151.57C113.498 148.01 113.828 146.98 110.678 140.75C108.939 137.432 108.02 133.746 107.998 130C108.087 123.746 107.134 117.521 105.178 111.58C104.048 108.35 106.278 105.45 105.268 102.38C105.078 101.82 105.908 101.83 106.268 101.7C110.461 100.201 114.33 97.9168 117.668 94.97C118.098 94.61 118.798 93.63 119.208 94.57C120.458 97.44 123.978 98.57 124.678 101.67C125.168 103.86 126.028 103.58 127.608 102.75C130.868 101.06 131.348 97.75 132.718 94.75C135.988 97.0549 139.694 98.6679 143.608 99.49C152.448 101.66 161.388 101.49 170.378 100.83C180.575 100.179 190.62 98.0256 200.188 94.44C201.328 94 203.068 93.44 202.448 92.08C201.248 89.42 203.148 89.31 204.618 88.86C206.642 88.0738 208.76 87.5593 210.918 87.33C213.628 87.33 216.378 85.66 218.798 86.43C225.298 88.49 230.868 86.57 236.238 83.35C239.028 81.68 241.058 79.06 240.668 75.66C240.461 74.13 240.789 72.5751 241.598 71.26C243.998 67 243.738 64.82 240.588 61.25ZM237.108 53.31C239.478 55.68 239.448 59.86 236.768 63.13C235.117 65.2627 233.04 67.0289 230.669 68.3165C228.299 69.6042 225.687 70.3852 222.998 70.61C216.558 70.61 212.998 67.85 213.138 63.74C213.138 62.93 212.878 62.1 214.428 62.42C222.798 64.14 228.738 60.22 233.088 53.6C234.688 51.16 235.678 51.88 237.108 53.31ZM144.668 45.2C151.158 46.28 155.088 50.93 155.148 57.57C154.658 66.68 150.568 73.57 142.428 77.86C139.848 79.22 139.258 78.86 139.178 76.06C139.078 72.6 138.478 69.3 136.178 66.52C134.998 65.07 134.898 63.87 136.178 62.1C139.189 57.7159 141.043 52.6422 141.568 47.35C141.808 44.88 142.998 44.92 144.668 45.2ZM43.4685 56C43.4685 55.53 43.4685 55.05 43.4685 54.58C43.3208 50.3974 44.489 46.2738 46.8085 42.79C49.4985 38.79 53.1785 36.79 58.1685 37.52C59.5085 37.73 60.0285 38.04 59.5885 39.43C59.3805 40.155 59.2762 40.9058 59.2785 41.66C59.2785 42.75 59.1185 43.2 57.7185 43.23C53.4885 43.34 50.7185 46.01 49.5885 50.57C48.4585 55.13 50.0685 59.75 53.4985 61.81C54.2685 62.27 55.2185 63.14 55.9985 62.11C56.9985 60.83 55.6085 60.37 54.8485 59.75C52.5185 57.84 51.1285 55.5 51.6385 52.37C52.1785 49.04 53.4985 46.28 56.9085 44.91C58.4885 44.27 59.1385 44.53 59.2885 46.3C59.5267 50.0831 60.6723 53.7532 62.6285 57C63.0185 57.63 63.2785 58.09 62.4685 58.59C59.8385 60.2 59.3085 62.9 58.8685 65.64C58.6385 67.13 58.4285 68.64 58.1285 70.1C57.4585 73.37 56.5385 73.95 53.5085 72.5C46.6285 69.25 43.9985 63.29 43.4685 56ZM14.1285 103.28C9.32835 97.4582 5.97977 90.5794 4.35847 83.21C1.22178 70.4988 2.13829 57.1249 6.97971 44.9603C11.8211 32.7958 20.3451 22.4496 31.3585 15.37C33.9718 13.6834 36.6385 12.0567 39.3585 10.49C42.1569 8.85163 45.4304 8.21667 48.6385 8.69004C54.6385 9.49004 57.7385 14.99 55.1385 20.41C53.8691 22.9514 51.8189 25.0191 49.2885 26.31C32.9485 35.38 17.6485 54.31 19.5685 75.49C19.7088 78.041 20.3906 80.5329 21.5685 82.8C21.8096 83.1286 21.9215 83.5344 21.8828 83.9401C21.8441 84.3458 21.6574 84.7231 21.3585 85C17.1497 90.2072 14.6277 96.5733 14.1285 103.25V103.28ZM53.6285 139.51C54.7985 142.38 54.3685 142.86 51.3485 142.58C50.7851 142.539 50.2301 142.421 49.6985 142.23C38.1085 137.8 28.1585 131.23 21.7585 120.23C13.3185 105.76 16.8985 89.9 30.5485 80.23C35.3423 77.0386 40.507 74.4428 45.9285 72.5C46.5285 72.26 47.2485 71.84 47.8285 72.28C50.0048 74.0986 52.5824 75.3737 55.3485 76C56.2785 76.18 55.9085 77 55.6385 77.63C55.3969 78.0346 55.1992 78.4637 55.0485 78.91C54.8085 80.26 52.4285 80.91 53.5485 82.5C54.6685 84.09 56.5485 84.5 58.2385 84.84C60.0753 85.1343 61.9525 85.0561 63.7585 84.61C63.8785 84.94 63.9985 85.11 63.9785 85.26C63.5585 87.77 63.9785 91.12 62.4485 92.55C60.9185 93.98 57.8685 91.91 55.3885 91.78C50.4779 91.4597 45.5506 92.0566 40.8585 93.54C39.6064 93.9628 38.4211 94.5622 37.3385 95.32C32.7585 98.48 32.8585 103.62 37.5185 106.71C38.7589 107.391 39.9252 108.198 40.9985 109.12C46.8901 115.245 54.8178 119.004 63.2885 119.69C60.3985 123.69 60.3985 123.69 63.8485 126.11C62.3849 127.019 60.8254 127.763 59.1985 128.33C56.5785 128.95 56.9985 130.15 58.1985 131.71C58.8685 132.61 59.6185 133.45 60.4985 134.51C59.0085 135.63 57.3185 135.24 55.8485 135.51C53.3685 136 52.6485 137.11 53.6285 139.51ZM62.3885 101.1C66.5785 101.73 70.8185 101.85 74.2285 98.82C77.0485 96.31 79.6085 95.82 82.3385 98.76C82.407 98.824 82.489 98.8718 82.5785 98.9C85.8485 100.15 87.0285 101.9 86.8085 105.9C86.5885 109.75 86.2785 113.62 85.9785 117.48C85.8585 119.04 85.5285 119.7 83.7485 118.95C79.5485 117.2 75.2285 116.61 70.7485 118.18C70.2107 118.385 69.6162 118.385 69.0785 118.18C64.1685 115.54 58.4285 116.38 53.3185 114.1C47.4885 111.5 43.3185 107.1 38.9585 102.87C37.7285 101.65 38.0485 100.08 39.3285 98.87C40.2949 97.9622 41.4249 97.2462 42.6585 96.76C48.7385 94.23 55.0085 94.86 61.5485 95.51C61.1385 96.18 60.9185 96.59 60.6685 96.97C59.1585 99.33 59.6285 100.68 62.3885 101.1ZM104.768 159.44C99.8585 163.64 96.9085 169.26 93.8685 174.69C90.9285 173.04 88.1685 171.41 85.3185 169.95C84.1485 169.35 83.9985 168.73 84.1985 167.51C84.8185 163.69 85.1985 159.84 85.7685 156.01C85.9985 154.34 89.5085 150.76 91.1985 150.42C91.5762 150.401 91.9449 150.298 92.2785 150.12C95.2085 147.56 97.6885 149.12 100.168 150.93C100.384 151.117 100.647 151.241 100.928 151.29C105.478 151.47 104.788 155.04 105.198 157.89C105.28 158.163 105.283 158.453 105.207 158.727C105.131 159.001 104.979 159.248 104.768 159.44ZM109.298 144.27C109.848 145.63 110.298 146.98 109.298 148.27C108.748 148.978 108.025 149.534 107.199 149.884C106.372 150.234 105.47 150.367 104.578 150.27C101.728 149.93 99.8185 147.63 97.3085 146.57C96.7385 146.33 96.9585 145.78 97.1085 145.34C98.1085 142.34 97.1085 139.71 95.6585 137.23C93.5927 133.821 90.8371 130.882 87.5685 128.6C86.3785 127.75 85.0085 127.45 82.7585 127.47C86.8785 129.8 89.5185 132.75 92.0985 135.77C93.3453 137.201 94.2939 138.867 94.8885 140.67C95.2568 141.6 95.3723 142.611 95.223 143.6C95.0736 144.589 94.6649 145.52 94.0385 146.3C93.7007 146.786 93.2438 147.178 92.7116 147.437C92.1793 147.696 91.5895 147.814 90.9985 147.78C89.8085 147.6 90.3485 146.23 90.1085 145.42C88.2885 139.33 85.6385 134.1 78.1685 133.42C78.7016 134.379 79.524 135.146 80.5185 135.61C84.5185 137.78 85.9885 141.71 87.4385 145.61C87.8203 146.695 87.7955 147.882 87.3685 148.95C87.2485 149.27 87.0585 149.76 86.8185 149.82C84.5685 150.33 84.5685 150.3 83.3585 152.17C82.3585 150.32 82.4985 148.02 80.6585 146.7C80.0985 146.31 79.5085 145.75 78.9085 146.13C78.0285 146.68 79.0785 147.23 79.1385 147.81C79.1289 147.903 79.1289 147.997 79.1385 148.09C80.9985 152 79.9985 155.62 76.9985 156.78C76.1183 157.065 75.1901 157.17 74.2686 157.089C73.3471 157.009 72.4511 156.745 71.6335 156.312C70.8159 155.88 70.0933 155.288 69.5085 154.571C68.9236 153.854 68.4884 153.028 68.2285 152.14C67.5885 149.48 66.5785 148.67 63.8885 148.84C62.5552 148.899 61.2281 148.626 60.0258 148.047C58.8235 147.468 57.7834 146.599 56.9985 145.52C55.9385 143.75 57.1885 140.52 57.5985 138.03C57.5985 137.78 58.9985 137.75 59.7385 137.63C63.4985 136.98 64.1985 135.26 61.8985 132.25C61.4485 131.65 60.8985 131.09 60.2685 130.25C61.9085 129.57 63.2685 129.11 64.4985 128.47C65.7285 127.83 67.6285 127.39 67.6785 125.61C67.7285 123.83 65.6785 123.89 64.5485 123C67.8285 118.88 72.3985 119.27 76.7485 119.75C80.0285 120.12 82.9985 121.89 86.0385 123.08C89.4197 124.554 92.6428 126.366 95.6585 128.49C100.106 131.182 103.79 134.97 106.358 139.49C107.208 141.14 108.578 142.51 109.298 144.27ZM105.178 133C100.358 127.7 94.7785 124.52 89.2585 121.26C88.2585 120.66 87.7885 120.17 88.0285 118.84C88.4585 116.33 88.7291 113.795 88.8385 111.25C88.9685 108.84 89.9185 108.73 91.5985 110L93.5985 111.54C96.7485 113.86 99.2485 113.84 102.998 111.38C104.917 118.416 105.654 125.722 105.178 133ZM88.3285 104C88.4285 102.27 88.7985 101.69 90.6785 102.31C93.7899 103.164 97.042 103.378 100.238 102.94C101.988 102.79 102.318 103.75 102.448 105.03C102.008 107.17 101.568 109.38 99.5185 110.36C97.7385 111.2 96.0785 110.15 94.6385 109.02C93.2693 107.874 91.6946 106.998 89.9985 106.44C88.5785 106 88.2485 105.36 88.3285 104ZM102.458 100.21C101.82 100.378 101.172 100.509 100.518 100.6C99.3885 100.7 98.2585 100.72 97.2185 100.77C88.6585 100.7 81.8185 97.05 76.1385 91.07C73.1385 87.94 70.3885 84.7 69.1385 80.32C67.1385 73.32 73.5185 65.15 80.8185 65.5C84.4185 65.67 88.0085 67.11 91.6485 65.72C92.1485 65.53 92.5185 65.59 92.6485 66.22C92.7359 66.677 92.9671 67.094 93.3085 67.41C94.3085 68.08 95.4685 69.71 96.6385 68.41C97.8085 67.11 96.4385 65.69 95.3085 65.22C93.5585 64.49 94.1385 63.79 94.8185 62.77C95.2753 62.1588 95.6424 61.4853 95.9085 60.77C95.9085 60.67 95.9085 60.57 95.9085 60.48V55.32C95.9144 55.038 95.9615 54.7584 96.0485 54.49C95.546 53.5643 95.2492 52.541 95.1785 51.49C94.9761 49.6108 94.398 47.7914 93.4785 46.14C90.5785 41.42 85.5785 40.07 80.7185 42.76C73.2985 46.9 69.9985 56.65 73.9285 63.21C75.0785 65.13 73.0685 65.21 72.3785 65.76C71.1085 66.76 71.0185 65.21 70.9185 64.6C68.9985 53.09 69.9985 42.11 77.6985 32.67C81.6185 27.83 86.7585 25.67 93.0785 27.39C93.5085 27.51 94.0785 28 94.5285 27.44C89.5285 24.51 84.7085 25.44 80.1985 28.44C73.3185 33 70.5785 40.13 68.9985 47.79C67.9436 53.2832 67.9436 58.9269 68.9985 64.42C69.5201 66.8958 69.1667 69.4758 67.9985 71.72C67.0076 73.5588 66.5302 75.6304 66.6165 77.7173C66.7027 79.8042 67.3493 81.8293 68.4885 83.58C70.413 87.0651 72.7645 90.2967 75.4885 93.2C76.4885 94.2 76.2585 94.72 75.1685 95.28C72.0385 96.89 68.8585 98.21 65.1685 97.83C63.7685 97.68 63.6385 97.32 64.1685 96.12C65.6585 92.45 65.7085 88.56 65.7785 84.69C65.7785 82.9 65.1685 81.79 63.0485 82.29C62.2125 82.4585 61.3551 82.4923 60.5085 82.39C57.4285 82.07 57.1485 81.52 58.3685 78.78C59.9985 75 60.5285 71 61.0985 67C61.5585 63.79 61.7885 60.5 65.5585 59.15C65.9885 59 66.2185 58.87 65.8485 58.03C63.7513 53.6036 62.516 48.8185 62.2085 43.93C61.8685 35.67 64.8885 28.83 70.6585 23.05C76.2909 17.4996 83.4732 13.7864 91.2585 12.4C94.1385 11.82 95.0585 10.59 94.3985 7.69004C94.0685 6.22004 93.4785 4.81004 92.8885 3.01004C94.4752 3.02323 96.0434 3.35284 97.5012 3.97958C98.9591 4.60632 100.277 5.51759 101.378 6.66004C103.168 8.59004 104.648 9.41004 107.118 7.55004C108.21 6.73072 109.502 6.22036 110.858 6.07255C112.215 5.92475 113.586 6.14495 114.828 6.71004C114.018 8.06004 112.398 8.38004 111.418 9.46004C109.738 11.3334 110.072 12.6667 112.418 13.46C125.768 17.84 135.028 26.37 138.278 40.29C139.188 43.7415 139.301 47.3547 138.608 50.8561C137.915 54.3575 136.434 57.6554 134.278 60.5C133.798 61.13 133.408 62.63 132.278 61.5C131.378 60.59 129.018 61.67 129.468 58.72C130.468 52.04 130.408 45.32 127.468 38.99C126.539 36.8087 125.159 34.8486 123.418 33.2389C121.678 31.6291 119.616 30.406 117.368 29.65C115.567 29.0312 113.625 28.9513 111.778 29.42C107.128 30.59 102.528 32.07 97.1085 29.94C98.6985 32.13 100.458 32.39 102.178 32.67C104.948 33.11 107.618 32.27 110.318 31.88C117.898 30.8 121.248 32.66 124.318 37.88C130.018 47.66 129.318 57.73 125.318 67.88C125.098 68.42 125.068 69.06 124.318 68.51C123.818 68.16 123.018 67.93 123.468 67.04C123.918 66.15 124.328 65.56 124.648 64.78C127.578 57.78 123.848 47.45 117.098 43.86C110.848 40.54 103.828 44.43 102.598 51.86C102.51 52.4403 102.324 53.0015 102.048 53.52C102.385 55.2468 102.563 57.0008 102.578 58.76C102.868 59.3998 103.083 60.0709 103.218 60.76C103.78 62.6641 104.73 64.4312 106.008 65.95C107.788 68.09 109.728 69.21 112.588 68.17C114.212 67.6793 115.934 67.6173 117.588 67.99C126.008 69.48 129.188 76.9 124.218 84.5C118.998 92.36 111.998 98.12 102.458 100.21ZM75.0585 53.45C75.3378 51.1643 76.3975 49.045 78.0585 47.45C78.9996 45.9999 80.3385 44.8515 81.915 44.1422C83.4915 43.4328 85.239 43.1925 86.9485 43.45C88.3129 43.6918 89.5678 44.3537 90.5378 45.3434C91.5077 46.333 92.1442 47.601 92.3585 48.97C92.4482 49.0719 92.5162 49.191 92.5585 49.32C93.0585 51.15 95.5585 64.53 90.0585 62.49C82.0585 59.49 78.0585 63.49 77.0585 62.49C76.0585 61.49 74.0585 60.45 75.0585 53.45ZM104.848 52.11C104.907 51.8394 104.99 51.5749 105.098 51.32C105.938 48.42 107.388 45.95 110.568 45.05C113.748 44.15 116.488 45.61 118.728 47.82C119.864 48.9254 120.766 50.2484 121.378 51.71C121.605 52.0497 121.802 52.4076 121.968 52.78C124.888 59.11 121.268 66.17 120.058 65.45C115.058 62.45 111.058 65.45 110.058 65.45C109.058 65.45 106.058 62.45 105.058 57.45C104.759 56.105 104.635 54.7269 104.688 53.35C104.615 52.93 104.671 52.4977 104.848 52.11ZM130.258 87.89C130.758 91.89 129.468 95.33 127.748 98.73C127.198 99.81 126.748 100.81 125.498 99.03C124.264 97.4923 122.927 96.039 121.498 94.68C120.388 93.45 120.418 92.38 121.618 91.01C124.348 87.91 127.148 84.8 128.228 80.62C128.724 78.9862 128.828 77.2589 128.533 75.5774C128.237 73.8959 127.551 72.3074 126.528 70.94C125.718 69.86 125.328 69.27 126.528 68.08C127.388 67.25 127.698 65.74 128.018 64.47C128.618 62.09 129.808 62.34 131.018 63.82C133.828 67.25 136.648 70.7 136.518 75.55C136.428 78.75 136.258 81.97 137.418 85.4C135.678 85.33 134.308 85.62 133.278 85.15C129.938 83.64 129.998 85.7 130.258 87.89ZM185.798 95.76C171.967 99.0349 157.599 99.345 143.638 96.67C140.833 96.2112 138.15 95.1908 135.748 93.67C134.987 93.1165 134.256 92.5223 133.558 91.89C133.077 91.4242 132.741 90.8277 132.594 90.174C132.447 89.5202 132.493 88.8376 132.728 88.21C133.088 86.85 134.468 87.88 135.378 87.75C136.406 87.7792 137.435 87.7425 138.458 87.64C140.078 87.17 141.758 86.47 139.928 84.34C138.928 83.15 139.448 82.53 140.728 82.16C141.082 82.0319 141.417 81.8606 141.728 81.65C144.218 80.18 146.378 79.35 149.268 81.57C151.778 83.49 155.198 83.75 158.508 83.4C161.318 83.1 164.248 83.4 166.978 82.86C173.789 81.4178 179.913 77.718 184.358 72.36C184.888 71.73 185.268 70.91 186.358 70.64C186.748 73.29 188.088 74.71 190.938 74C192.308 73.66 192.298 74.45 192.098 75.42C191.875 76.3394 191.704 77.2709 191.588 78.21C191.418 80 191.998 81.41 193.998 82C195.998 82.59 198.048 83.1 199.438 85C198.438 86.29 195.938 86.13 195.678 87.9C195.368 90.06 197.908 90.09 199.188 91.43C194.928 93.75 190.348 94.69 185.798 95.76ZM207.648 85.31C205.176 85.8262 202.846 86.8737 200.818 88.38C200.208 88.88 199.508 89.11 199.068 88.56C198.328 87.63 199.498 87.56 199.938 87.27C203.198 85.27 203.168 85.11 200.328 82.59C198.461 81.1323 196.263 80.1569 193.928 79.75C192.838 79.47 192.518 79.3 192.998 78.15C193.409 76.9974 193.694 75.8038 193.848 74.59C194.078 73.24 195.148 71.34 192.258 71.59C191.528 71.66 191.638 71.13 191.588 70.67C191.078 66.74 190.128 62.89 189.938 58.9C189.759 55.5109 190.221 52.1183 191.298 48.9C194.618 38.9 192.228 29.68 186.948 21.05C184.368 16.85 184.878 13.3 189.218 10.88C194.498 7.93004 201.318 10.62 202.698 16.13C203.928 21.07 203.768 26.07 204.588 30.99C204.768 31.99 204.858 33.05 205.108 34.05C206.188 38.25 207.188 39.05 211.338 38.44C214.778 37.92 218.178 37.08 221.568 36.27C229.338 34.43 234.568 38.97 233.648 46.86C232.778 54.59 225.378 60.86 217.728 60.44C215.243 60.2852 212.917 59.1615 211.251 57.3103C209.585 55.4591 208.712 53.0282 208.818 50.54C208.928 48.01 210.738 47.43 212.728 47.41C214.548 47.41 215.818 47.07 216.908 45.3C217.499 44.4907 218.245 43.8081 219.104 43.2928C219.963 42.7774 220.917 42.4398 221.908 42.3C222.678 42.13 223.568 42.11 223.298 41.03C223.028 39.95 222.128 39.85 221.228 40.03C220.201 40.2407 219.228 40.6589 218.368 41.259C217.509 41.8591 216.78 42.6285 216.228 43.52C216.029 43.9206 215.696 44.2393 215.288 44.4217C214.879 44.6041 214.42 44.6389 213.988 44.52C209.728 44.2 207.588 45.9 206.988 50.09C206.458 53.95 207.218 57.5 210.348 60.09C210.861 60.4113 211.233 60.915 211.389 61.4996C211.545 62.0842 211.473 62.7062 211.188 63.24C210.868 63.9369 210.724 64.7019 210.769 65.4676C210.815 66.2332 211.048 66.9759 211.448 67.63C213.275 70.0486 214.278 72.9894 214.308 76.02C214.308 77.23 214.818 78.37 214.378 79.71C213.938 81.05 214.728 82.61 215.728 84.22C213.016 84.4196 210.317 84.7836 207.648 85.31ZM237.378 80.19C232.488 85.29 226.448 86.02 219.968 84.47C217.508 83.89 215.888 82.2 215.588 79.17C224.588 83.89 231.938 80.07 239.098 74.93C239.748 77.25 238.708 78.8 237.378 80.19ZM239.998 70.12C236.678 76.2 227.628 80.42 220.858 79.03C217.308 78.31 215.488 76.09 215.548 72.34C219.564 73.584 223.871 73.5223 227.849 72.1639C231.827 70.8054 235.272 68.2202 237.688 64.78C238.098 64.21 238.298 63.13 239.128 63.29C239.958 63.45 240.268 64.46 240.578 65.29C240.856 66.0861 240.949 66.9351 240.848 67.7722C240.748 68.6094 240.457 69.4125 239.998 70.12Z" fill="black"/>
<path d="M84.5586 45.4502C82.0686 45.4502 80.0586 48.5802 80.0586 52.4502C80.0586 56.3202 82.0586 59.4502 84.5586 59.4502C87.0586 59.4502 89.0586 56.3102 89.0586 52.4502C89.0586 48.5902 86.9986 45.4502 84.5586 45.4502ZM83.5586 51.7802C82.7286 51.7802 82.0586 50.7302 82.0586 49.4502C82.0586 48.1702 82.7286 47.1102 83.5586 47.1102C84.3886 47.1102 85.0586 48.1102 85.0586 49.4502C85.0586 50.7902 84.3786 51.7802 83.5586 51.7802Z" fill="black"/>
<path d="M112.559 46.4502C110.069 46.4502 108.059 49.5802 108.059 53.4502C108.059 57.3202 110.059 60.4502 112.559 60.4502C115.059 60.4502 117.059 57.3102 117.059 53.4502C117.059 49.5902 114.999 46.4502 112.559 46.4502ZM111.559 52.7802C110.729 52.7802 110.059 51.7302 110.059 50.4502C110.059 49.1702 110.729 48.1102 111.559 48.1102C112.389 48.1102 113.059 49.1102 113.059 50.4502C113.059 51.7902 112.379 52.7802 111.559 52.7802Z" fill="black"/>
</g>
<defs>
<clipPath id="clip0_296_507">
<rect width="243.2" height="179.68" fill="white"/>
</clipPath>
</defs>
</svg>
