<svg width="69" height="126" viewBox="0 0 69 126" fill="none" xmlns="http://www.w3.org/2000/svg">
<path fill-rule="evenodd" clip-rule="evenodd" d="M31.0486 0.929939C29.4021 0.526985 27.7175 0.456977 26.1067 0.724494L19.2659 1.86591L32.802 46.0369L40.384 39.2197C42.8928 36.965 44.0671 33.629 43.5652 30.1725L40.822 11.3237C40.5896 9.72889 40.0095 8.16749 39.1189 6.74311C38.2288 5.31873 37.0486 4.06391 35.6575 3.06171C34.2659 2.05952 32.6951 1.33289 31.0486 0.929939ZM30.4499 48.1519L29.8215 48.717C29.2761 49.2099 28.886 49.8417 28.6897 50.5515C28.4934 51.2612 28.4968 52.025 28.7004 52.7692L34.8074 74.884C35.0149 75.6287 35.4153 76.3276 35.9705 76.913C36.5251 77.4983 37.2156 77.9503 37.9748 78.2253L39.8767 78.9121L53.7551 124.2L50.3967 124.76C43.5813 125.897 36.0207 123.482 31.2121 117.722C18.8957 102.986 9.96313 86.0833 5.07983 68.2728C0.12963 50.4755 -0.650155 32.2143 2.79858 14.8485C4.13354 8.12751 9.67358 3.52857 16.4119 2.34296L30.4499 48.1519ZM56.6091 123.724L43.2502 80.1303L52.6155 83.5125C54.3308 84.1342 55.9128 85.1082 57.2424 86.3613C58.572 87.6145 59.6155 89.1142 60.2932 90.7477L67.7463 108.806C70.4255 115.298 66.7512 122.036 59.9202 123.171L56.6091 123.724Z" fill="#EF4523"/>
</svg>
