<svg xmlns="http://www.w3.org/2000/svg" viewBox="0 0 822.15 204.64"><defs><style>.cls-1{fill:#feef38;opacity:0.7;}</style></defs><title>Paint</title><g id="Layer_2" data-name="Layer 2"><g id="Layer_2-2" data-name="Layer 2"><path class="cls-1" d="M100.5,63.37C87.59,58.71,8.28,72.16,2.63,71.29-2.41,69.7,1.07,32.43,5,26.55c1.38-2.08,3.19-2.66,7.49-2.12,3.78.48,29.88-2.67,93-9.74,1.23,1.06,4.35-3,5.1-1.67.56.78,9.72.38,23.35-.43,15.29-.91,56.91-4,77.44-5.22,30.31-1.86,18.89-1.5,53.57-3.15,7.27-.34,1.59,2.05,10.12,1C293.2,3,333,4.34,346.75,2.36,357.81.77,360.19.66,370.81,2c8.48,1.1,68.39.61,75.15-1.68,1.63-.66,2.85-.36,2.84.46.72.08,40.6,2.22,40.77,2.92a2,2,0,0,0,2.67.75c2.13-.91,45.49-1.67,46.09.76,1.71,6.92-5.62,35.45-10.82,42.28-5.45,7.17-32.33-2.64-55.42,1l-16.28-.49c-95.35-2.84-92.1-.9-110.29,1.36-2.58-2.46-12.3,3.6-18.35-.6-2.52-1.75-20.26-1.73-24.19,0-.84.38-7.16.54-16.3.64s-21.11.15-33.25.51c-6.08.18-12.2.32-18,.55s-11.38.6-16.31,1c-9.85.77-17.24,1.73-19.5,3.09C181.46,51.16,117.7,60.89,100.5,63.37Z"/><path class="cls-1" d="M150.53,72.91C126.9,64.46,6.45,71.81,2.9,71.36c-7.28-1.7.55-38.48,8-44.82C13.27,24.47,16.2,24,23,24.46c0,0,73.26-.73,143.42.94,1.69,1.23,7.1-2.37,8-.93.72.85,14.66,1.83,35.38,3.1S405.35,39.79,408.89,40.05c11,.81,2.11,2.24,15.13,2.61,31.59.9,88,8.52,108.69,8.67,16.87.11,20.44.7,36.36,3.61,16.23,3,103.45,11.76,113.69,10.43,2.53-.33,4.34.1,4.25.91,0,0,36.68,5.11,58.65,9a12.8,12.8,0,0,1,2.69.61c.36.88,2.17,1.54,4,1.2,3.31-.61,68.92,6.21,69.62,8.72,2,7.22-11.37,34.36-19.85,40.29-8.79,6.15-48-8.21-84.18-8.48-17.43-2.43-84.42-10.88-158.38-18.87l-34.31-.92C521.59,95,506,99.5,497.34,94.33c-3.62-2.16-30.62-5.07-36.82-3.86-5,1-140.82-15.35-158.11-11C275.86,72.82,172.22,72.91,150.53,72.91Z"/><path class="cls-1" d="M692.33,74.35C705.19,79.78,808.06,82,819.5,85.45c6,2.67-7.69,38.28-13.84,43.14-2.19,1.73-4.54,1.88-9.74.41-7-2-54.33-4.76-61.77-5.12-47.85-2.34-39.32-1.62-55.7-1.94-1.4-1.21-5.89,2.42-6.63,1-.6-.8-12.11-1.85-29.31-2.54C607,119,587,118.93,561.67,118.93c-35,0-81.11,1.08-84.9,1.15-9.19.16-1.93-2-12.75-1.12-23,2-73.32,1-90.73,3.52-13.94,2-16.94,2-30.42,1.17-15.87-1-86.85,3.53-94.89,6.61-2,.78-3.57.62-3.62-.2-.49,0-51.56,1.45-51.73,1-.44-.79-2-1.1-3.45-.46-2.64.91-57.2,7-58.25,4.63-3-6.68,2.8-35.87,8.7-43.33,6.18-7.81,42.82-1.39,71.11-7.31,171.07-8.33,112.65-3,163.37-9.24,3.35,2.35,15.89-4,23.75.15,3.26,1.73,26.2,1.45,31.28-.4,5.62-2,123.16,1.59,134.07-2.61C577.37,75.57,616.58,74.9,692.33,74.35Z"/><path class="cls-1" d="M252.41,140.82c-15.08-6.47-115.39-3.77-121.79-5.27-6-2.23,4.13-38.73,9.86-44.05,2-1.89,4.32-2.23,9.54-1.13,4.29.9,56.67,1.66,61,1.73,27.92.5,54.8,1.19,54.8,1.19,1.37,1.22,5.81-2.38,6.53-.94,1.2,1.79,88.69,6.49,90.85,6.62,28.71,1.71,70.59,4.31,100.06,6.54,9,.68,1.68,2.25,12.3,2.4,22.62.32,71.31,7.11,88.45,6.93,13.76-.14,16.67.17,29.59,2.84,13.17,2.73,84.13,9.23,92.45,7.52,2.06-.42,3.53,0,3.45.78,1.86.34,23,3.22,24.86,3.49.46.06,24.88,3.45,25,3.9.29.86,1.75,1.43,3.23,1,2.69-.54,56,2.85,56.58,5.33,1.71,7.09-8.94,34.85-15.84,41.18-7.22,6.62-40.71-5.9-69-4.72-151-17.33-123.06-14.51-157.19-14.76-2.91-2.78-15.69,1.93-22.67-3.07-2.91-2.09-24.9-4.56-29.95-3.27C501,156,388.2,142,376,146.21,353.62,140.06,274.86,140.78,252.41,140.82Z"/><path class="cls-1" d="M653.26,131.35c9.17,3.26,64.65,4.4,74.35,4.7,6.89.21,63,1.84,69,3.35,6.84,2.56-7.18,38.45-13.88,43.42-2.4,1.78-5,2-10.93.59-7.49-1.75-62.26-3.29-69.84-3.49-17.28-.47-35.56-.6-63-.8-1.61-1.18-6.6,2.55-7.47,1.14-.69-.83-13.73-1.46-33.17-2-58.82-1.55-147.41.78-187.11,1.69-10.36.24-2.19-2-14.38-1-26,2.1-82.63,1.66-102.22,4.39-15.68,2.18-19.07,2.19-34.23,1.58-8.17-.32-30,.92-38.12,1.38-7.73.44-59.5,4-68.39,7.26-2.25.81-4,.73-4.06-.09-.29,0-57.79,3.25-57.89,3.06-.51-.78-2.29-1-3.87-.31-2,.87-63.56,10.24-64.78,8.13-3.74-6.48,1.22-36,7.59-43.86,3.31-4.09,15.3-5.31,30.53-6.24C120,150.66,85,151,134.91,147.39c125-9.07,92.68-3.21,160.57-11.18,3.79,2.34,17.9-4.09,26.76-.15,3.68,1.63,29.51,1.26,35.23-.61,1.23-.41,10.43-.69,23.74-.83s30.74-.19,48.43-.26c35.37-.16,71.81-.42,78.61-2.76C530.12,135.47,624.11,131.53,653.26,131.35Z"/></g></g></svg>