 <svg xmlns="http://www.w3.org/2000/svg" xmlns:xlink="http://www.w3.org/1999/xlink" viewBox="0 0 800 800" width="800"
                height="800" preserveAspectRatio="xMidYMid meet"
                style="width: 100%; height: 100%; transform: translate3d(0px, 0px, 0px); content-visibility: visible;">
                <defs>
                    <clipPath id="__lottie_element_1299">
                        <rect width="800" height="800" x="0" y="0"></rect>
                    </clipPath>
                    <clipPath id="__lottie_element_1301">
                        <path d="M0,0 L2000,0 L2000,2000 L0,2000z"></path>
                    </clipPath>
                    <clipPath id="__lottie_element_1305">
                        <path d="M0,0 L2000,0 L2000,2000 L0,2000z"></path>
                    </clipPath>
                </defs>
                <g clip-path="url(#__lottie_element_1299)">
                    <g clip-path="url(#__lottie_element_1301)" style="display: block;"
                        transform="matrix(0.41999998688697815,0,0,0.41999998688697815,8.0001220703125,-42.000091552734375)"
                        opacity="1">
                        <g style="display: block;" transform="matrix(1,0,0,1,371.9000244140625,1054.25)" opacity="1">
                            <g opacity="1" transform="matrix(1,0,0,1,161.9250030517578,233.22999572753906)">
                                <path fill="rgb(6,82,91)" fill-opacity="1"
                                    d=" M161.6750030517578,44.02000045776367 C161.6750030517578,117.05999755859375 133.38499450683594,183.49000549316406 87.20500183105469,232.97999572753906 C-61.875,133.08999633789062 -160.35499572753906,-36.45000076293945 -161.6750030517578,-229.0800018310547 C-146.61500549316406,-231.63999938964844 -131.11500549316406,-232.97999572753906 -115.32499694824219,-232.97999572753906 C37.67499923706055,-232.97999572753906 161.6750030517578,-108.9800033569336 161.6750030517578,44.02000045776367z">
                                </path>
                            </g>
                        </g>
                        <g style="display: block;" transform="matrix(1,0,0,1,371.8900146484375,493.75)" opacity="1">
                            <g opacity="1" transform="matrix(1,0,0,1,560.75,560.75)">
                                <path fill="rgb(247,247,247)" fill-opacity="1"
                                    d=" M560.5,0 C560.5,309.55999755859375 309.5610046386719,560.5 0,560.5 C-115.31999969482422,560.5 -222.5,525.6699829101562 -311.6090087890625,465.9599914550781 C-265.42999267578125,416.4700012207031 -237.13999938964844,350.0400085449219 -237.13999938964844,277 C-237.13999938964844,124 -361.1400146484375,0 -514.1400146484375,0 C-529.9299926757812,0 -545.4299926757812,1.340000033378601 -560.489990234375,3.9000000953674316 C-560.5,2.5999999046325684 -560.5,1.2999999523162842 -560.5,0 C-560.5,-309.55999755859375 -309.54998779296875,-560.5 0,-560.5 C309.5610046386719,-560.5 560.5,-309.55999755859375 560.5,0z">
                                </path>
                            </g>
                        </g>
                        <g style="display: block;" transform="matrix(1,0,0,1,144,16)" opacity="1">
                            <g opacity="1" transform="matrix(1,0,0,1,642.7999877929688,1506)">
                                <path stroke-linecap="round" stroke-linejoin="round" fill-opacity="0" stroke="rgb(216,7,7)"
                                    stroke-opacity="1" stroke-width="15"
                                    d=" M-85.30000305175781,-36.5 C-85.30000305175781,-36.5 -53.29999923706055,-38.5 -6.300000190734863,2.5 C10.730999946594238,15.829000473022461 27.707000732421875,19.698999404907227 42.30500030517578,19.288000106811523">
                                </path>
                            </g>
                            <g opacity="1" transform="matrix(1,0,0,1,732,1352)">
                                <path stroke-linecap="round" stroke-linejoin="round" fill-opacity="0" stroke="rgb(216,7,7)"
                                    stroke-opacity="1" stroke-width="15"
                                    d=" M-150.5,62.5 C-150.5,62.5 -50.5,77.5 34.5,30.5 C53.79600143432617,19.829999923706055 70.30999755859375,8.439000129699707 84.30899810791016,-2.7960000038146973">
                                </path>
                            </g>
                            <g opacity="1" transform="matrix(1,0,0,1,857.5999755859375,1422.5)">
                                <path stroke-linecap="round" stroke-linejoin="round" fill-opacity="0" stroke="rgb(216,7,7)"
                                    stroke-opacity="1" stroke-width="15"
                                    d=" M-104.0999984741211,-30 C-104.0999984741211,-30 -73.0999984741211,30 -5.099999904632568,29 C28.195999145507812,28.510000228881836 55.06700134277344,14.354999542236328 73.82099914550781,0.032999999821186066">
                                </path>
                            </g>
                            <g opacity="1" transform="matrix(1,0,0,1,949.5,1488)">
                                <path stroke-linecap="round" stroke-linejoin="round" fill-opacity="0" stroke="rgb(216,7,7)"
                                    stroke-opacity="1" stroke-width="15"
                                    d=" M-77,-38.5 C-77,-38.5 -78,16.5 -26,27.5 C-14.97599983215332,29.832000732421875 -3.9519999027252197,30.231000900268555 6.576000213623047,29.413000106811523">
                                </path>
                            </g>
                            <g opacity="1" transform="matrix(1,0,0,1,670,1234)">
                                <path stroke-linecap="round" stroke-linejoin="round" fill-opacity="0" stroke="rgb(216,7,7)"
                                    stroke-opacity="1" stroke-width="15"
                                    d=" M-65.5,65.5 C-65.5,65.5 0.23800000548362732,30.551000595092773 32.275001525878906,2.4010000228881836">
                                </path>
                            </g>
                            <g opacity="1" transform="matrix(1,0,0,1,636,1328.5)">
                                <path stroke-linecap="round" stroke-linejoin="round" fill-opacity="0" stroke="rgb(216,7,7)"
                                    stroke-opacity="1" stroke-width="15"
                                    d=" M-31.5,-29 C-31.5,-29 -4.216000080108643,-8.895999908447266 14.585000038146973,8.791999816894531">
                                </path>
                            </g>
                            <g opacity="1" transform="matrix(1,0,0,1,716.5,1292)">
                                <path stroke-linecap="round" stroke-linejoin="round" fill-opacity="0" stroke="rgb(216,7,7)"
                                    stroke-opacity="1" stroke-width="15"
                                    d=" M-50,-25.5 C-50,-25.5 -29,13.5 1,19.5 C6.449999809265137,20.59000015258789 11.536999702453613,21.250999450683594 16.214000701904297,21.60300064086914">
                                </path>
                            </g>
                            <g opacity="1" transform="matrix(1,0,0,1,645.9500122070312,1069)">
                                <path stroke-linecap="round" stroke-linejoin="round" fill-opacity="0" stroke="rgb(216,7,7)"
                                    stroke-opacity="1" stroke-width="15"
                                    d=" M-84.44999694824219,71.5 C-84.44999694824219,71.5 -39.45000076293945,10.5 -7.449999809265137,-3.5 C1.253999948501587,-7.4079999923706055 8.63700008392334,-10.16100025177002 14.991999626159668,-12.133999824523926">
                                </path>
                            </g>
                            <g opacity="1" transform="matrix(1,0,0,1,695,1111.5)">
                                <path stroke-linecap="round" stroke-linejoin="round" fill-opacity="0" stroke="rgb(216,7,7)"
                                    stroke-opacity="1" stroke-width="15"
                                    d=" M-81.5,-27 C-81.5,-27 -64.12000274658203,-2.302000045776367 -36.16400146484375,12.451000213623047">
                                </path>
                            </g>
                            <g opacity="1" transform="matrix(1,0,0,1,505,1004)">
                                <path stroke-linecap="round" stroke-linejoin="round" fill-opacity="0" stroke="rgb(216,7,7)"
                                    stroke-opacity="1" stroke-width="15"
                                    d=" M-16.5,47.5 C-16.5,47.5 8.180000305175781,19.82900047302246 9.032999992370605,-3.822000026702881">
                                </path>
                            </g>
                            <g opacity="1" transform="matrix(1,0,0,1,528.5,1040)">
                                <path stroke-linecap="round" stroke-linejoin="round" fill-opacity="0" stroke="rgb(216,7,7)"
                                    stroke-opacity="1" stroke-width="15"
                                    d=" M-40,12.5 C-40,12.5 -17.809999465942383,-0.7080000042915344 8.904999732971191,-4.85099983215332">
                                </path>
                            </g>
                            <g opacity="1" transform="matrix(1,0,0,1,580,981.25)">
                                <path stroke-linecap="round" stroke-linejoin="round" fill-opacity="0" stroke="rgb(216,7,7)"
                                    stroke-opacity="1" stroke-width="15"
                                    d=" M-91.5,69.1500015258789 C-91.5,69.1500015258789 -53.624000549316406,-2.990999937057495 -7.631999969482422,-18.472999572753906">
                                </path>
                            </g>
                            <g opacity="1" transform="matrix(1,0,0,1,392.54998779296875,973)">
                                <path stroke-linecap="round" stroke-linejoin="round" fill-opacity="0" stroke="rgb(216,7,7)"
                                    stroke-opacity="1" stroke-width="15"
                                    d=" M-16.049999237060547,34.5 C-11.850000381469727,30 16.049999237060547,15.5 13.449999809265137,-9 C13.00100040435791,-14.53499984741211 12.418000221252441,-19.041000366210938 11.821000099182129,-22.63800048828125">
                                </path>
                            </g>
                            <g opacity="1" transform="matrix(1,0,0,1,420.5,968)">
                                <path stroke-linecap="round" stroke-linejoin="round" fill-opacity="0" stroke="rgb(216,7,7)"
                                    stroke-opacity="1" stroke-width="15"
                                    d=" M-44,39.5 C-44,39.5 -5.900000095367432,4 19,-3.5 C22.059999465942383,-4.421999931335449 24.746000289916992,-5.660999774932861 27.101999282836914,-7.125">
                                </path>
                            </g>
                            <g opacity="1" transform="matrix(1,0,0,1,354.5,874.5)">
                                <path stroke-linecap="round" stroke-linejoin="round" fill-opacity="0" stroke="rgb(216,7,7)"
                                    stroke-opacity="1" stroke-width="15"
                                    d=" M-44,113 C-44,113 10,34 27,-17 C37.66400146484375,-48.99100112915039 30.22800064086914,-78.62000274658203 23.202999114990234,-96.26399993896484">
                                </path>
                            </g>
                            <g opacity="1" transform="matrix(1,0,0,1,421,908)">
                                <path stroke-linecap="round" stroke-linejoin="round" fill-opacity="0" stroke="rgb(216,7,7)"
                                    stroke-opacity="1" stroke-width="15"
                                    d=" M-110.5,76.5 C-110.5,76.5 -64.86900329589844,-19.402999877929688 -2.8529999256134033,-38.446998596191406">
                                </path>
                            </g>
                        </g>
                        <g clip-path="url(#__lottie_element_1305)" style="display: block;"
                            transform="matrix(-1,0,0,-1,1865.2640380859375,2117.89404296875)" opacity="1">
                            <g style="display: block;" transform="matrix(1,0,0,1,0,0)" opacity="1">
                                <g opacity="1" transform="matrix(1,0,0,1,1322.4000244140625,565)">
                                    <path fill="#ef4523" fill-opacity="1"
                                        d=" M132.10000610351562,35.5 C132.10000610351562,51.29999923706055 129.39999389648438,66.4000015258789 124.5,80.5 C96.19999694824219,71.4000015258789 65.9000015258789,66.5 34.599998474121094,66.5 C-15.699999809265137,66.5 -63.099998474121094,79.19999694824219 -104.5,101.5 C-93.30000305175781,83.30000305175781 -86.9000015258789,61.900001525878906 -86.9000015258789,39 C-86.9000015258789,7.900000095367432 -98.69999694824219,-20.299999237060547 -118.19999694824219,-41.599998474121094 C-122.5,-46.29999923706055 -127.0999984741211,-50.599998474121094 -132.10000610351562,-54.599998474121094 C-105.30000305175781,-73.0999984741211 -75.30000305175781,-87.30000305175781 -43,-96.0999984741211 C-40.599998474121094,-96.80000305175781 -38.20000076293945,-97.4000015258789 -35.79999923706055,-98 C-35.79999923706055,-98 -35.70000076293945,-98 -35.70000076293945,-98 C-25.799999237060547,-100.30000305175781 -15.50100040435791,-101.5 -4.900000095367432,-101.5 C70.80000305175781,-101.5 132.10000610351562,-40.20000076293945 132.10000610351562,35.5z">
                                    </path>
                                </g>
                            </g>
                            <g style="display: block;"
                                transform="matrix(0.9353558421134949,-0.35370805859565735,0.35370805859565735,0.9353558421134949,-122.7899169921875,453.0267639160156)"
                                opacity="1">
                                <g opacity="1" transform="matrix(1,0,0,1,1101.550048828125,624.1500244140625)">
                                    <path fill="#ef4523" fill-opacity="1"
                                        d=" M107.44999694824219,-1.149999976158142 C107.44999694824219,-1.149999976158142 107.44999694824219,1.850000023841858 107.44999694824219,1.850000023841858 C107.1500015258789,14.25 104.55000305175781,26.149999618530273 100.1500015258789,37.04999923706055 C87.8499984741211,62.95000076293945 61.54999923706055,80.8499984741211 30.950000762939453,80.8499984741211 C23.549999237060547,80.8499984741211 16.450000762939453,79.8499984741211 9.649999618530273,77.8499984741211 C6.150000095367432,76.8499984741211 2.75,75.55000305175781 -0.550000011920929,74.05000305175781 C-7.949999809265137,83.44999694824219 -17.350000381469727,91.1500015258789 -28.149999618530273,96.55000305175781 C-35.95000076293945,100.3499984741211 -44.349998474121094,103.05000305175781 -53.349998474121094,104.1500015258789 C-49.95000076293945,99.55000305175781 -47.54999923706055,94.25 -46.349998474121094,88.44999694824219 C-45.849998474121094,85.94999694824219 -45.54999923706055,83.44999694824219 -45.54999923706055,80.8499984741211 C-45.54999923706055,59.349998474121094 -63.04999923706055,41.849998474121094 -84.55000305175781,41.849998474121094 C-86.05000305175781,41.849998474121094 -87.55000305175781,41.95000076293945 -89.05000305175781,42.150001525878906 C-95.8499984741211,42.95000076293945 -102.1500015258789,45.45000076293945 -107.44999694824219,49.349998474121094 C-104.75,41.150001525878906 -100.25,33.650001525878906 -94.55000305175781,27.450000762939453 C-89.75,22.25 -84.1500015258789,17.950000762939453 -77.8499984741211,14.649999618530273 C-84.05000305175781,3.6500000953674316 -87.55000305175781,-9.050000190734863 -87.55000305175781,-22.649999618530273 C-87.55000305175781,-33.54999923706055 -85.25,-43.849998474121094 -81.25,-53.150001525878906 C-75.94999694824219,-65.44999694824219 -67.44999694824219,-75.94999694824219 -56.849998474121094,-83.94999694824219 C-56.349998474121094,-84.3499984741211 -55.75,-84.75 -55.25,-85.1500015258789 C-54.849998474121094,-85.44999694824219 -54.45000076293945,-85.6500015258789 -54.04999923706055,-85.94999694824219 C-53.650001525878906,-86.25 -53.25,-86.44999694824219 -52.849998474121094,-86.75 C-36.45000076293945,-97.75 -16.75,-104.1500015258789 4.449999809265137,-104.1500015258789 C61.349998474121094,-104.1500015258789 107.44999694824219,-58.04999923706055 107.44999694824219,-1.149999976158142z">
                                    </path>
                                </g>
                            </g>
                            <g style="display: block;"
                                transform="matrix(0.867476224899292,-0.497478723526001,0.497478723526001,0.867476224899292,-89.50537872314453,964.6586303710938)"
                                opacity="1">
                                <g opacity="1" transform="matrix(1,0,0,1,1570.949951171875,887.9500122070312)">
                                    <path fill="#ef4523" fill-opacity="1"
                                        d=" M125.6500015258789,-265.04998779296875 C121.2509994506836,-265.1499938964844 117.2509994506836,-261.95001220703125 114.95099639892578,-257.04998779296875 C114.2509994506836,-255.5500030517578 113.7509994506836,-253.85000610351562 113.45099639892578,-252.0500030517578 C53.54999923706055,-58.150001525878906 -32.249000549316406,117.05000305175781 -137.35000610351562,265.1499938964844 C-27.450000762939453,120.3499984741211 65.05000305175781,-50.04999923706055 134.85000610351562,-239.14999389648438 C135.5500030517578,-240.4499969482422 136.0500030517578,-241.85000610351562 136.4510040283203,-243.35000610351562 C136.85000610351562,-244.85000610351562 137.0500030517578,-246.35000610351562 137.14999389648438,-248.0500030517578 C137.35000610351562,-257.25 132.25100708007812,-264.8500061035156 125.6500015258789,-265.04998779296875z">
                                    </path>
                                </g>
                            </g>
                            <g style="display: block;"
                                transform="matrix(0.9837808609008789,0.1793745905160904,-0.1793745905160904,0.9837808609008789,144.3341064453125,-258.75341796875)"
                                opacity="1">
                                <g opacity="1" transform="matrix(1,0,0,1,1591.949951171875,634.0999755859375)">
                                    <path fill="#ef4523" fill-opacity="1"
                                        d=" M-96.75,32.900001525878906 C-97.44999694824219,35 -95.25,37.400001525878906 -91.94999694824219,38.20000076293945 C-90.55000305175781,38.5 -89.1500015258789,38.599998474121094 -87.94999694824219,38.29999923706055 C-87.1500015258789,37.900001525878906 -86.44999694824219,37.5 -85.6500015258789,37.20000076293945 C-32.54999923706055,11.600000381469727 26.14900016784668,-8.899999618530273 89.14900207519531,-23.700000762939453 C90.05000305175781,-23.899999618530273 91.05000305175781,-24.100000381469727 91.94999694824219,-24.399999618530273 C94.05000305175781,-25.200000762939453 95.64900207519531,-26.600000381469727 96.25,-28.399999618530273 C97.44999694824219,-32.20000076293945 93.55000305175781,-36.5 87.6500015258789,-38 C85.44999694824219,-38.599998474121094 83.1500015258789,-38.599998474121094 81.25,-38.29999923706055 C79.3499984741211,-37.29999923706055 77.44999694824219,-36.29999923706055 75.55000305175781,-35.29999923706055 C24.450000762939453,-8.600000381469727 -31.950000762939453,13.300000190734863 -92.44999694824219,30.299999237060547 C-93.3499984741211,30.5 -94.14900207519531,30.799999237060547 -95.05000305175781,31 C-95.94999694824219,31.5 -96.55000305175781,32.099998474121094 -96.75,32.900001525878906z">
                                    </path>
                                </g>
                            </g>
                            <g style="display: block;"
                                transform="matrix(0.9670459032058716,0.25460195541381836,-0.25460195541381836,0.9670459032058716,253.481201171875,-369.91900634765625)"
                                opacity="1">
                                <g opacity="1" transform="matrix(1,0,0,1,1488.9000244140625,1094.050048828125)">
                                    <path fill="#ef4523" fill-opacity="1"
                                        d=" M181.60000610351562,-229.25 C177.3000030517578,-230.35000610351562 172.6999969482422,-228.0500030517578 169.39999389648438,-223.75 C168.39999389648438,-222.4499969482422 167.5,-220.9499969482422 166.8000030517578,-219.25 C65.80000305175781,-43.14899826049805 -56.20000076293945,108.85099792480469 -191.3000030517578,230.3509979248047 C-52.29999923706055,113.1500015258789 75.30000305175781,-32.849998474121094 184.8000030517578,-202.0500030517578 C185.6999969482422,-203.14999389648438 186.5,-204.4499969482422 187.1999969482422,-205.85000610351562 C187.89999389648438,-207.14999389648438 188.39999389648438,-208.64999389648438 188.89999389648438,-210.25 C191.3000030517578,-219.0500030517578 188,-227.5500030517578 181.60000610351562,-229.25z">
                                    </path>
                                </g>
                            </g>
                            <g style="display: block;"
                                transform="matrix(0.9925461411476135,0.12186934053897858,-0.12186934053897858,0.9925461411476135,93.889404296875,-171.07861328125)"
                                opacity="1">
                                <g opacity="1" transform="matrix(1,0,0,1,1550.1500244140625,766.2000122070312)">
                                    <path fill="#ef4523" fill-opacity="1"
                                        d=" M-107.94999694824219,-93.69999694824219 C-110.94999694824219,-92.9000015258789 -112.1500015258789,-88.5999984741211 -110.75,-84.0999984741211 C-110.1500015258789,-82.0999984741211 -109.1500015258789,-80.5 -107.94999694824219,-79.30000305175781 C-106.94999694824219,-78.69999694824219 -105.94999694824219,-78 -104.94999694824219,-77.30000305175781 C-36.150001525878906,-32.29999923706055 30.649999618530273,23.399999618530273 93.9489974975586,88.19999694824219 C94.8499984741211,89.19999694824219 95.8499984741211,90.0999984741211 96.75,91.0999984741211 C99.25,93.0999984741211 102.05000305175781,94 104.55000305175781,93.30000305175781 C109.9489974975586,91.9000015258789 112.1500015258789,84.19999694824219 109.6500015258789,76 C108.6500015258789,72.9000015258789 107.1500015258789,70.19999694824219 105.3499984741211,68.0999984741211 C102.75,66.5999984741211 100.25,65 97.75,63.5 C29.25,21.600000381469727 -37.650001525878906,-30.100000381469727 -101.75,-90.5 C-102.6500015258789,-91.4000015258789 -103.5510025024414,-92.19999694824219 -104.44999694824219,-93.0999984741211 C-105.6500015258789,-93.69999694824219 -106.8499984741211,-94 -107.94999694824219,-93.69999694824219z">
                                    </path>
                                </g>
                            </g>
                            <g style="display: block;"
                                transform="matrix(0.713250458240509,0.7009092569351196,-0.7009092569351196,0.713250458240509,1014.7660522460938,-832.343017578125)"
                                opacity="1">
                                <g opacity="1" transform="matrix(1,0,0,1,1395.449951171875,1065.6500244140625)">
                                    <path fill="#ef4523" fill-opacity="1"
                                        d=" M100.75,-258.6499938964844 C96.3499984741211,-258.3500061035156 92.64900207519531,-255.0500030517578 90.8499984741211,-250.25 C90.25,-248.75 89.94999694824219,-247.14999389648438 89.75,-245.4499969482422 C47.349998474121094,-59.349998474121094 -22.35099983215332,111.44999694824219 -113.75,259.04998779296875 C-17.25,114.25 59.64899826049805,-52.95000076293945 112.25,-235.35000610351562 C112.75,-236.64999389648438 113.14900207519531,-237.9499969482422 113.44999694824219,-239.4499969482422 C113.64900207519531,-240.85000610351562 113.75,-242.35000610351562 113.64900207519531,-243.85000610351562 C113.14900207519531,-252.4499969482422 107.3499984741211,-259.04998779296875 100.75,-258.6499938964844z">
                                    </path>
                                </g>
                            </g>
                            <g style="display: block;"
                                transform="matrix(0.9969173073768616,-0.07845909893512726,0.07845909893512726,0.9969173073768616,-53.181640625,102.43646240234375)"
                                opacity="1">
                                <g opacity="1" transform="matrix(1,0,0,1,1378.800048828125,762.1500244140625)">
                                    <path fill="#ef4523" fill-opacity="1"
                                        d=" M-108.80000305175781,-41.150001525878906 C-110.69999694824219,-39.75 -110.19999694824219,-36.04999923706055 -107.69999694824219,-33.04999923706055 C-106.5999984741211,-31.75 -105.30000305175781,-30.75 -104.0999984741211,-30.149999618530273 C-103.19999694824219,-29.950000762939453 -102.19999694824219,-29.75 -101.30000305175781,-29.549999237060547 C-36.400001525878906,-14.850000381469727 30.5,8.350000381469727 97.80000305175781,39.650001525878906 C98.80000305175781,40.150001525878906 99.80000305175781,40.54999923706055 100.80000305175781,41.04999923706055 C103.30000305175781,41.849998474121094 105.5999984741211,41.75 107.19999694824219,40.54999923706055 C110.69999694824219,37.95000076293945 109.80000305175781,31.450000762939453 105.19999694824219,25.950000762939453 C103.5,23.850000381469727 101.5,22.25 99.5,21.149999618530273 C97.0999984741211,20.75 94.80000305175781,20.25 92.4000015258789,19.850000381469727 C28.799999237060547,7.449999809265137 -36.900001525878906,-12.75 -103.30000305175781,-40.45000076293945 C-104.19999694824219,-40.849998474121094 -105.19999694824219,-41.25 -106.0999984741211,-41.650001525878906 C-107.0999984741211,-41.849998474121094 -108,-41.75 -108.80000305175781,-41.150001525878906z">
                                    </path>
                                </g>
                            </g>
                            <g style="display: block;"
                                transform="matrix(0.7343225479125977,0.6788007616996765,-0.6788007616996765,0.7343225479125977,801.8377685546875,-647.2002563476562)"
                                opacity="1">
                                <g opacity="1" transform="matrix(1,0,0,1,1332.8499755859375,980.0999755859375)">
                                    <path fill="#ef4523" fill-opacity="1"
                                        d=" M64.1500015258789,-313.3999938964844 C59.45000076293945,-312.5 56.04999923706055,-308.1000061035156 54.849998474121094,-302.29998779296875 C54.54999923706055,-300.5 54.349998474121094,-298.6000061035156 54.45000076293945,-296.6000061035156 C39.650001525878906,-75.69999694824219 -7.050000190734863,131.49899291992188 -80.8499984741211,314.79998779296875 C-1.149999976158142,133.99899291992188 53.849998474121094,-69.9000015258789 80.25,-288.1000061035156 C80.6500015258789,-289.6000061035156 80.8499984741211,-291.29998779296875 80.8499984741211,-293 C80.8499984741211,-294.70001220703125 80.75,-296.3999938964844 80.3499984741211,-298.1000061035156 C78.3499984741211,-307.8999938964844 71.1500015258789,-314.79998779296875 64.1500015258789,-313.3999938964844z">
                                    </path>
                                </g>
                            </g>
                            <g style="display: block;"
                                transform="matrix(0.6819983720779419,0.7313537001609802,-0.7313537001609802,0.6819983720779419,911.1427001953125,-684.98486328125)"
                                opacity="1">
                                <g opacity="1" transform="matrix(1,0,0,1,1316.0999755859375,674.0999755859375)">
                                    <path fill="#ef4523" fill-opacity="1"
                                        d=" M-79.30000305175781,29.100000381469727 C-80,31.100000381469727 -78.4000015258789,33.400001525878906 -75.80000305175781,34.20000076293945 C-74.6989974975586,34.599998474121094 -73.5999984741211,34.599998474121094 -72.5999984741211,34.400001525878906 C-72,34.099998474121094 -71.30000305175781,33.70000076293945 -70.6989974975586,33.400001525878906 C-26.698999404907227,10.399999618530273 21.5,-7.699999809265137 72.8010025024414,-20.299999237060547 C73.5999984741211,-20.5 74.3010025024414,-20.700000762939453 75.0999984741211,-20.899999618530273 C76.9000015258789,-21.600000381469727 78.19999694824219,-22.899999618530273 78.8010025024414,-24.600000381469727 C80,-28.200000762939453 77.19999694824219,-32.29999923706055 72.5,-33.900001525878906 C70.69999694824219,-34.5 69,-34.599998474121094 67.4000015258789,-34.29999923706055 C65.8010025024414,-33.400001525878906 64.3010025024414,-32.5 62.70000076293945,-31.600000381469727 C20.301000595092773,-7.599999904632568 -26.198999404907227,12 -75.5999984741211,26.700000762939453 C-76.30000305175781,26.899999618530273 -77,27.100000381469727 -77.6989974975586,27.299999237060547 C-78.5,27.700000762939453 -79,28.299999237060547 -79.30000305175781,29.100000381469727z">
                                    </path>
                                </g>
                            </g>
                            <g style="display: block;"
                                transform="matrix(0.9965655207633972,0.08280818164348602,-0.08280818164348602,0.9965655207633972,168.8962860107422,-105.69666290283203)"
                                opacity="1">
                                <g opacity="1" transform="matrix(1,0,0,1,938.5999755859375,439.1499938964844)">
                                    <path fill="#ef4523" fill-opacity="1"
                                        d=" M130.1999969482422,-97.44999694824219 C130.60000610351562,-94.44999694824219 129.1999969482422,-91.6500015258789 126.8010025024414,-89.94999694824219 C126,-89.44999694824219 125.19999694824219,-88.94999694824219 124.3010025024414,-88.6500015258789 C26.100000381469727,-38.849998474121094 -60.099998474121094,27.149999618530273 -130.60000610351562,104.8499984741211 C-62.29999923706055,24.049999237060547 21,-46.25 115.8010025024414,-102.25 C116.4000015258789,-102.75 117.0999984741211,-103.1500015258789 117.9000015258789,-103.55000305175781 C118.69999694824219,-103.8499984741211 119.5,-104.05000305175781 120.3010025024414,-104.25 C125.19999694824219,-104.8499984741211 129.60000610351562,-101.8499984741211 130.1999969482422,-97.44999694824219z">
                                    </path>
                                </g>
                            </g>
                            <g style="display: block;"
                                transform="matrix(0.7283709645271301,0.6851829886436462,-0.6851829886436462,0.7283709645271301,660.59228515625,-652.5909423828125)"
                                opacity="1">
                                <g opacity="1" transform="matrix(1,0,0,1,1113.8499755859375,433.04998779296875)">
                                    <path fill="#ef4523" fill-opacity="1"
                                        d=" M43.04999923706055,74.44999694824219 C42.349998474121094,76.75 39.849998474121094,78.05000305175781 37.349998474121094,77.3499984741211 C36.349998474121094,77.05000305175781 35.44900131225586,76.44999694824219 34.849998474121094,75.6500015258789 C34.54999923706055,74.94999694824219 34.349998474121094,74.25 34.04999923706055,73.55000305175781 C14.949000358581543,25.049999237060547 -10.149999618530273,-21.149999618530273 -40.849998474121094,-63.95000076293945 C-41.250999450683594,-64.55000305175781 -41.750999450683594,-65.25 -42.250999450683594,-65.8499984741211 C-43.150001525878906,-67.55000305175781 -43.349998474121094,-69.6500015258789 -42.849998474121094,-71.55000305175781 C-41.55099868774414,-75.75 -37.05099868774414,-78.05000305175781 -32.650001525878906,-76.75 C-30.950000762939453,-76.25 -29.649999618530273,-75.3499984741211 -28.551000595092773,-74.1500015258789 C-27.950000762939453,-72.3499984741211 -27.250999450683594,-70.55000305175781 -26.649999618530273,-68.75 C-9.350000381469727,-20.25 13.649999618530273,26.350000381469727 41.749000549316406,70.1500015258789 C42.150001525878906,70.75 42.54999923706055,71.44999694824219 42.94900131225586,72.05000305175781 C43.249000549316406,72.6500015258789 43.349998474121094,73.55000305175781 43.04999923706055,74.44999694824219z">
                                    </path>
                                </g>
                            </g>
                            <g style="display: block;"
                                transform="matrix(0.685183048248291,0.7283709645271301,-0.7283709645271301,0.685183048248291,552.4921264648438,-652.051513671875)"
                                opacity="1">
                                <g opacity="1" transform="matrix(1,0,0,1,880.4000244140625,399)">
                                    <path fill="#ef4523" fill-opacity="1"
                                        d=" M129.39999389648438,-133.1999969482422 C130.39999389648438,-129.8000030517578 129.1999969482422,-126.30000305175781 126.80000305175781,-123.9000015258789 C126.0009994506836,-123.19999694824219 125.19999694824219,-122.5 124.19999694824219,-122 C22,-49.400001525878906 -64.0999984741211,40.29999923706055 -130.39999389648438,141 C-67,37.099998474121094 15,-57.099998474121094 112.4000015258789,-136.60000610351562 C113,-137.3000030517578 113.80000305175781,-137.89999389648438 114.5999984741211,-138.39999389648438 C115.4000015258789,-138.89999389648438 116.30000305175781,-139.3000030517578 117.19999694824219,-139.5 C122.5009994506836,-141 128.00100708007812,-138.1999969482422 129.39999389648438,-133.1999969482422z">
                                    </path>
                                </g>
                            </g>
                            <g style="display: block;"
                                transform="matrix(0.9862856268882751,0.16504760086536407,-0.16504760086536407,0.9862856268882751,97.82952880859375,-175.34161376953125)"
                                opacity="1">
                                <g opacity="1" transform="matrix(1,0,0,1,1059.949951171875,399.25)">
                                    <path fill="#ef4523" fill-opacity="1"
                                        d=" M49.54999923706055,105.25 C48.349998474121094,108.3499984741211 44.95000076293945,110.05000305175781 41.75,108.8499984741211 C40.45000076293945,108.3499984741211 39.349998474121094,107.44999694824219 38.650001525878906,106.25 C38.650001525878906,106.25 37.75,103.25 37.75,103.25 C17.450000762939453,35.25 -11.149999618530273,-30.049999237060547 -47.349998474121094,-90.94999694824219 C-47.849998474121094,-91.8499984741211 -48.45000076293945,-92.75 -48.95000076293945,-93.6500015258789 C-49.95000076293945,-96.05000305175781 -50.04999923706055,-98.8499984741211 -49.04999923706055,-101.55000305175781 C-46.95000076293945,-107.1500015258789 -40.75,-110.05000305175781 -35.04999923706055,-108.05000305175781 C-32.95000076293945,-107.25 -31.149999618530273,-105.8499984741211 -29.950000762939453,-104.1500015258789 C-29.350000381469727,-101.6500015258789 -28.649999618530273,-99.05000305175781 -27.950000762939453,-96.55000305175781 C-9.949999809265137,-28.649999618530273 15.649999618530273,37.04999923706055 48.349998474121094,99.05000305175781 C48.849998474121094,99.94999694824219 49.25,100.8499984741211 49.75,101.6500015258789 C50.04999923706055,102.8499984741211 49.95000076293945,104.05000305175781 49.54999923706055,105.25z">
                                    </path>
                                </g>
                            </g>
                            <g style="display: block;"
                                transform="matrix(0.9982398152351379,-0.05930637940764427,0.05930637940764427,0.9982398152351379,-11.379047393798828,50.09955978393555)"
                                opacity="1">
                                <g opacity="1" transform="matrix(1,0,0,1,787.9500122070312,432.1499938964844)">
                                    <path fill="#ef4523" fill-opacity="1"
                                        d=" M103.25,-149.85000610351562 C104.55000305175781,-145.85000610351562 103.94999694824219,-141.75 101.94999694824219,-139.0500030517578 C101.3499984741211,-138.25 100.6500015258789,-137.5500030517578 99.75,-137.0500030517578 C13.949999809265137,-57.04999923706055 -55.04999923706055,44.04999923706055 -104.55000305175781,159.5500030517578 C-58.04999923706055,40.150001525878906 6.650000095367432,-66.55000305175781 87.25,-154.9499969482422 C87.75,-155.75 88.3499984741211,-156.35000610351562 89.05000305175781,-156.9499969482422 C89.75,-157.4499969482422 90.44999694824219,-157.85000610351562 91.3499984741211,-158.14999389648438 C95.94999694824219,-159.5500030517578 101.3499984741211,-155.85000610351562 103.25,-149.85000610351562z">
                                    </path>
                                </g>
                            </g>
                            <g style="display: block;"
                                transform="matrix(0.9998477101325989,0.017452405765652657,-0.017452405765652657,0.9998477101325989,9.38934326171875,-17.912841796875)"
                                opacity="1">
                                <g opacity="1" transform="matrix(1,0,0,1,964.3499755859375,417.29998779296875)">
                                    <path fill="#ef4523" fill-opacity="1"
                                        d=" M71.94999694824219,111.69999694824219 C71.5510025024414,115.9000015258789 68.5510025024414,119.0999984741211 65.1500015258789,118.80000305175781 C63.75,118.69999694824219 62.45000076293945,117.9000015258789 61.55099868774414,116.80000305175781 C61.55099868774414,116.80000305175781 60.05099868774414,113.5 60.05099868774414,113.5 C24.549999237060547,37.70000076293945 -18.350000381469727,-31.899999618530273 -67.6500015258789,-93.5 C-68.3499984741211,-94.4000015258789 -69.1500015258789,-95.30000305175781 -69.8499984741211,-96.19999694824219 C-71.3499984741211,-98.80000305175781 -72.1500015258789,-102.19999694824219 -71.8499984741211,-105.80000305175781 C-71.1500015258789,-113.4000015258789 -65.6500015258789,-119.0999984741211 -59.75,-118.5999984741211 C-57.45000076293945,-118.4000015258789 -55.45000076293945,-117.30000305175781 -53.849998474121094,-115.5999984741211 C-52.650001525878906,-112.69999694824219 -51.45000076293945,-109.9000015258789 -50.150001525878906,-107.0999984741211 C-16.950000762939453,-30.600000381469727 23.149999618530273,40.5 69.3499984741211,104.69999694824219 C70.0510025024414,105.5999984741211 70.6500015258789,106.5 71.3499984741211,107.4000015258789 C71.94999694824219,108.5999984741211 72.1500015258789,110.0999984741211 71.94999694824219,111.69999694824219z">
                                    </path>
                                </g>
                            </g>
                            <g style="display: block;"
                                transform="matrix(0.8064445853233337,-0.591309666633606,0.591309666633606,0.8064445853233337,-107.90251159667969,586.6890869140625)"
                                opacity="1">
                                <g opacity="1" transform="matrix(1,0,0,1,577.9000244140625,506.20001220703125)">
                                    <path fill="#ef4523" fill-opacity="1"
                                        d=" M202.60000610351562,-121.19999694824219 C202.60000610351562,-116.5999984741211 200.10000610351562,-112.5 196.3000030517578,-110.30000305175781 C195.10000610351562,-109.5999984741211 193.89999389648438,-109.19999694824219 192.5,-108.9000015258789 C45.20000076293945,-53.5 -88.5999984741211,29.399999618530273 -202.60000610351562,133.6999969482422 C-91,24.299999237060547 39.400001525878906,-65.9000015258789 183.39999389648438,-131.6999969482422 C184.39999389648438,-132.3000030517578 185.5,-132.8000030517578 186.60000610351562,-133.1999969482422 C187.6999969482422,-133.5 188.89999389648438,-133.6999969482422 190.10000610351562,-133.6999969482422 C197,-133.6999969482422 202.60000610351562,-128.10000610351562 202.60000610351562,-121.19999694824219z">
                                    </path>
                                </g>
                            </g>
                            <g style="display: block;"
                                transform="matrix(0.9702957272529602,-0.24192190170288086,0.24192190170288086,0.9702957272529602,-117.142333984375,259.952392578125)"
                                opacity="1">
                                <g opacity="1" transform="matrix(1,0,0,1,904.0499877929688,503.95001220703125)">
                                    <path fill="#ef4523" fill-opacity="1"
                                        d=" M101.44999694824219,102.05000305175781 C101.44999694824219,106.1500015258789 98.05000305175781,109.55000305175781 93.94999694824219,109.55000305175781 C92.1500015258789,109.55000305175781 90.55000305175781,108.94999694824219 89.25,107.8499984741211 C88.44999694824219,106.8499984741211 87.75,105.8499984741211 86.94999694824219,104.75 C34.349998474121094,34.45000076293945 -26.850000381469727,-29.149999618530273 -94.94999694824219,-84.44999694824219 C-95.94999694824219,-85.25 -96.94999694824219,-86.05000305175781 -97.94999694824219,-86.94999694824219 C-100.1500015258789,-89.3499984741211 -101.44999694824219,-92.55000305175781 -101.44999694824219,-96.05000305175781 C-101.44999694824219,-103.55000305175781 -95.44999694824219,-109.55000305175781 -87.94999694824219,-109.55000305175781 C-85.1500015258789,-109.55000305175781 -82.55000305175781,-108.6500015258789 -80.3499984741211,-107.25 C-78.55000305175781,-104.55000305175781 -76.6500015258789,-101.94999694824219 -74.8499984741211,-99.25 C-24.850000381469727,-27.950000762939453 32.95000076293945,37.25 97.44999694824219,95.3499984741211 C98.3499984741211,96.1500015258789 99.25,97.05000305175781 100.25,97.8499984741211 C100.94999694824219,99.05000305175781 101.44999694824219,100.55000305175781 101.44999694824219,102.05000305175781z">
                                    </path>
                                </g>
                            </g>
                        </g>
                    </g>
                </g>
            </svg>